<svg width="183" height="157" viewBox="0 0 183 157" xmlns="http://www.w3.org/2000/svg">
<g filter="url(#filter0_d_49_117)">
<path d="M19.7845 50.0001C19.7845 24.0569 37.2985 0 61.2812 0C77.9241 0 90.2736 10.7934 97.8964 26.105C105.519 10.7943 117.868 0 134.512 0C158.497 0 176.008 24.0609 176.008 50.0001C176.008 105.527 97.8964 145 97.8964 145C97.8964 145 45.2797 120.02 26.4152 79.0449H73.0145L80.4213 66.0602L89.0729 95.9229L109.333 70.2344H134.655V61.1719H104.839L92.9353 76.2646L83.2076 42.6898L67.6404 69.9824H22.9082C23.8822 73.0836 25.0621 76.1055 26.4152 79.0449L6 79.0445V69.982L22.9082 69.9824C20.9168 63.6428 19.7845 56.9719 19.7845 50.0001Z" />
</g>
<defs>
<filter id="filter0_d_49_117" x="0" y="0" width="182.008" height="157" filterUnits="userSpaceOnUse" color-interpolation-filters="sRGB">
<feFlood flood-opacity="0" result="BackgroundImageFix"/>
<feColorMatrix in="SourceAlpha" type="matrix" values="0 0 0 0 0 0 0 0 0 0 0 0 0 0 0 0 0 0 127 0" result="hardAlpha"/>
<feOffset dy="6"/>
<feGaussianBlur stdDeviation="3"/>
<feComposite in2="hardAlpha" operator="out"/>
<feColorMatrix type="matrix" values="0 0 0 0 0 0 0 0 0 0 0 0 0 0 0 0 0 0 0.25 0"/>
<feBlend mode="normal" in2="BackgroundImageFix" result="effect1_dropShadow_49_117"/>
<feBlend mode="normal" in="SourceGraphic" in2="effect1_dropShadow_49_117" result="shape"/>
</filter>
</defs>
</svg>
