<svg width="78" height="76" viewBox="0 0 78 76" fill="none" xmlns="http://www.w3.org/2000/svg">
<path d="M54.5317 26.278C54.1998 25.4255 53.6915 24.6515 53.0395 24.0057C52.3876 23.3599 51.6064 22.8567 50.7464 22.5285C49.5622 22.0936 48.3115 21.8637 47.0488 21.8489C44.9489 21.7541 44.3194 21.7304 39 21.7304C33.6807 21.7304 33.0511 21.7541 30.9513 21.8489C29.6872 21.8633 28.4351 22.0931 27.2496 22.5285C26.39 22.8576 25.6094 23.3616 24.9581 24.0081C24.3068 24.6546 23.7993 25.4291 23.4683 26.2819C23.0297 27.4561 22.7979 28.6963 22.783 29.9484C22.6873 32.0306 22.6634 32.6548 22.6634 37.9294C22.6634 43.204 22.6873 43.8282 22.783 45.9104C22.7974 47.1638 23.0293 48.4054 23.4683 49.5808C23.8002 50.4333 24.3085 51.2073 24.9605 51.8531C25.6125 52.4989 26.3936 53.0021 27.2536 53.3303C28.4378 53.7652 29.6886 53.9951 30.9513 54.0099C33.0511 54.1047 33.6807 54.1245 39 54.1245C44.3194 54.1245 44.9489 54.1047 47.0488 54.0059C48.3126 53.9929 49.5647 53.7643 50.7504 53.3303C51.6101 53.0012 52.3907 52.4972 53.042 51.8507C53.6932 51.2042 54.2007 50.4297 54.5317 49.5769C54.9703 48.4027 55.2022 47.1625 55.2171 45.9104C55.3127 43.8282 55.3326 43.204 55.3326 37.9294C55.3326 32.6548 55.3127 32.0306 55.2131 29.9484C55.1999 28.6952 54.9694 27.4537 54.5317 26.278ZM39 48.0755C36.9763 48.0755 34.998 47.4805 33.3153 46.3656C31.6326 45.2507 30.3211 43.6661 29.5466 41.8122C28.7722 39.9582 28.5695 37.9181 28.9643 35.95C29.3592 33.9818 30.3337 32.174 31.7647 30.755C33.1957 29.3361 35.0189 28.3697 37.0038 27.9782C38.9887 27.5868 41.046 27.7877 42.9157 28.5556C44.7855 29.3236 46.3835 30.624 47.5079 32.2925C48.6322 33.961 49.2323 35.9227 49.2323 37.9294C49.2323 40.6203 48.1543 43.201 46.2353 45.1038C44.3164 47.0066 41.7138 48.0755 39 48.0755ZM49.6347 29.7548C49.1619 29.7548 48.6997 29.6158 48.3065 29.3553C47.9134 29.0948 47.607 28.7246 47.426 28.2914C47.2451 27.8583 47.1977 27.3816 47.29 26.9218C47.3822 26.4619 47.6099 26.0395 47.9442 25.708C48.2786 25.3764 48.7046 25.1507 49.1683 25.0592C49.6321 24.9677 50.1128 25.0147 50.5496 25.1941C50.9865 25.3735 51.3599 25.6774 51.6226 26.0672C51.8853 26.4571 52.0255 26.9154 52.0255 27.3842C52.0255 28.013 51.7736 28.6159 51.3252 29.0605C50.8769 29.5051 50.2688 29.7548 49.6347 29.7548ZM45.6422 37.9294C45.6422 39.232 45.2527 40.5054 44.5228 41.5885C43.793 42.6717 42.7556 43.5158 41.5419 44.0143C40.3282 44.5128 38.9927 44.6433 37.7042 44.3891C36.4157 44.135 35.2322 43.5077 34.3033 42.5866C33.3743 41.6655 32.7417 40.4919 32.4854 39.2143C32.2291 37.9367 32.3607 36.6124 32.8634 35.4089C33.3661 34.2055 34.2175 33.1768 35.3098 32.4531C36.4021 31.7294 37.6863 31.3431 39 31.3431C40.7617 31.3431 42.4511 32.037 43.6968 33.2722C44.9424 34.5074 45.6422 36.1826 45.6422 37.9294ZM39 0C31.4346 0 24.039 2.22452 17.7486 6.39226C11.4582 10.56 6.55538 16.4838 3.66022 23.4144C0.765048 30.3451 0.00754005 37.9715 1.48348 45.3291C2.95943 52.6866 6.60253 59.445 11.9521 64.7495C17.3017 70.0541 24.1174 73.6665 31.5375 75.13C38.9576 76.5935 46.6487 75.8424 53.6382 72.9716C60.6278 70.1008 66.6019 65.2393 70.805 59.0019C75.0081 52.7644 77.2515 45.4311 77.2515 37.9294C77.2515 27.8699 73.2215 18.2224 66.0479 11.1093C58.8744 3.99612 49.145 0 39 0ZM58.8032 46.0724C58.7694 47.7118 58.4555 49.3336 57.8748 50.8689C57.363 52.1809 56.5805 53.3724 55.5774 54.3672C54.5742 55.3619 53.3726 56.1378 52.0494 56.6452C50.5023 57.2206 48.8681 57.5319 47.2161 57.5658C45.0884 57.6606 44.411 57.6843 39 57.6843C33.589 57.6843 32.9117 57.6606 30.7839 57.5658C29.132 57.5319 27.4977 57.2206 25.9507 56.6452C24.6275 56.1378 23.4258 55.3619 22.4227 54.3672C21.4195 53.3724 20.637 52.1809 20.1253 50.8689C19.545 49.3348 19.2311 47.7144 19.1969 46.0763C19.1013 43.9665 19.0773 43.2948 19.0773 37.9294C19.0773 32.564 19.1013 31.8923 19.1969 29.7825C19.2298 28.1447 19.5424 26.5242 20.1213 24.9899C20.633 23.6768 21.4159 22.4842 22.4198 21.4888C23.4237 20.4934 24.6264 19.717 25.9507 19.2097C27.498 18.6356 29.1322 18.3257 30.7839 18.293C32.9117 18.1982 33.589 18.1745 39 18.1745C44.411 18.1745 45.0884 18.1982 47.2161 18.293C48.8679 18.3257 50.5021 18.6356 52.0494 19.2097C53.3729 19.7175 54.5749 20.494 55.578 21.4894C56.5812 22.4849 57.3635 23.6772 57.8748 24.9899C58.4551 26.524 58.769 28.1444 58.8032 29.7825C58.8988 31.8923 58.9227 32.564 58.9227 37.9294C58.9227 43.2948 58.8988 43.9626 58.8032 46.0724Z" fill="#066A95"/>
</svg>
