<svg width="77" height="76" viewBox="0 0 77 76" fill="none" xmlns="http://www.w3.org/2000/svg">
<path d="M45.1357 37.2696L36.1864 33.129C35.4055 32.7694 34.764 33.1724 34.764 34.0298V41.829C34.764 42.6864 35.4055 43.0894 36.1864 42.7299L45.1317 38.5892C45.9167 38.2257 45.9167 37.6331 45.1357 37.2696ZM38.7485 0C17.6225 0 0.496948 16.9813 0.496948 37.9294C0.496948 58.8775 17.6225 75.8588 38.7485 75.8588C59.8745 75.8588 77 58.8775 77 37.9294C77 16.9813 59.8745 0 38.7485 0ZM38.7485 53.3382C19.1685 53.3382 18.8258 51.588 18.8258 37.9294C18.8258 24.2709 19.1685 22.5206 38.7485 22.5206C58.3285 22.5206 58.6712 24.2709 58.6712 37.9294C58.6712 51.588 58.3285 53.3382 38.7485 53.3382Z" fill="#066A95"/>
</svg>
