<svg width="45" height="45" viewBox="0 0 61 61" fill="none" xmlns="http://www.w3.org/2000/svg">
    <path
        d="M40.9136 43.5417C40.4717 43.5429 40.035 43.4673 39.6357 43.3206C39.2364 43.1738 38.8846 42.9597 38.6061 42.6938L24.3174 28.9438C23.8823 28.5337 23.6444 28.0194 23.6444 27.4886C23.6444 26.9578 23.8823 26.4434 24.3174 26.0334L39.1091 12.2834C39.6112 11.8154 40.3328 11.5211 41.115 11.4652C41.8973 11.4093 42.6762 11.5965 43.2803 11.9855C43.8845 12.3744 44.2644 12.9334 44.3365 13.5394C44.4086 14.1454 44.167 14.7487 43.6649 15.2167L30.4411 27.5L43.2211 39.7834C43.5829 40.1198 43.8127 40.5294 43.8833 40.9638C43.954 41.3981 43.8625 41.8391 43.6198 42.2345C43.377 42.6299 42.9931 42.9631 42.5136 43.1948C42.034 43.4264 41.4788 43.5468 40.9136 43.5417Z"
        fill="#231F20" />
</svg>