<svg width="104" height="23" viewBox="0 0 104 23" fill="none" xmlns="http://www.w3.org/2000/svg">
<path d="M27.8555 11.8574H24.2031L24.1836 9.72852H27.2012C27.735 9.72852 28.168 9.66341 28.5 9.5332C28.8385 9.40299 29.0859 9.21419 29.2422 8.9668C29.3984 8.71289 29.4766 8.40039 29.4766 8.0293C29.4766 7.60612 29.3984 7.26432 29.2422 7.00391C29.0859 6.74349 28.8385 6.55469 28.5 6.4375C28.168 6.3138 27.7383 6.25195 27.2109 6.25195H25.3555V18H22.1719V3.78125H27.2109C28.0638 3.78125 28.8255 3.85938 29.4961 4.01562C30.1667 4.17188 30.7363 4.41276 31.2051 4.73828C31.6803 5.0638 32.0417 5.4707 32.2891 5.95898C32.5365 6.44727 32.6602 7.02344 32.6602 7.6875C32.6602 8.26693 32.5299 8.80729 32.2695 9.30859C32.0156 9.8099 31.6055 10.2168 31.0391 10.5293C30.4727 10.8418 29.7142 11.0111 28.7637 11.0371L27.8555 11.8574ZM27.7285 18H23.3926L24.5449 15.5391H27.7285C28.2168 15.5391 28.6139 15.4609 28.9199 15.3047C29.2259 15.1484 29.4505 14.9368 29.5938 14.6699C29.737 14.403 29.8086 14.1035 29.8086 13.7715C29.8086 13.3809 29.7402 13.0423 29.6035 12.7559C29.4733 12.4694 29.265 12.248 28.9785 12.0918C28.6986 11.9355 28.3242 11.8574 27.8555 11.8574H25.0039L25.0234 9.72852H28.5098L29.252 10.5684C30.1569 10.5488 30.8796 10.6953 31.4199 11.0078C31.9668 11.3138 32.3607 11.7174 32.6016 12.2188C32.8424 12.7201 32.9629 13.2507 32.9629 13.8105C32.9629 14.735 32.7643 15.5098 32.3672 16.1348C31.9701 16.7533 31.3809 17.2188 30.5996 17.5312C29.8249 17.8438 28.8678 18 27.7285 18ZM37.4121 3.78125V18H34.2383V3.78125H37.4121ZM45.0645 6.48633L41.3926 18H37.9941L43.2578 3.78125H45.4062L45.0645 6.48633ZM48.1113 18L44.4297 6.48633L44.0488 3.78125H46.2266L51.5098 18H48.1113ZM47.9551 12.707V15.168H40.543V12.707H47.9551ZM63.0449 14.25C63.0449 14.0091 63.0091 13.7943 62.9375 13.6055C62.8659 13.4102 62.7357 13.2311 62.5469 13.0684C62.3581 12.9056 62.0911 12.7428 61.7461 12.5801C61.401 12.4108 60.9486 12.2383 60.3887 12.0625C59.7507 11.8542 59.1419 11.6198 58.5625 11.3594C57.9896 11.0924 57.4785 10.7832 57.0293 10.4316C56.5801 10.0801 56.2253 9.66992 55.9648 9.20117C55.7109 8.73242 55.584 8.18555 55.584 7.56055C55.584 6.95508 55.7174 6.4082 55.9844 5.91992C56.2513 5.43164 56.6257 5.01497 57.1074 4.66992C57.5892 4.31836 58.1556 4.05143 58.8066 3.86914C59.4577 3.68034 60.1738 3.58594 60.9551 3.58594C61.9967 3.58594 62.9115 3.77148 63.6992 4.14258C64.4935 4.50716 65.112 5.02148 65.5547 5.68555C65.9974 6.3431 66.2188 7.10807 66.2188 7.98047H63.0547C63.0547 7.59635 62.9733 7.25781 62.8105 6.96484C62.6543 6.66536 62.4134 6.43099 62.0879 6.26172C61.7689 6.09245 61.3685 6.00781 60.8867 6.00781C60.418 6.00781 60.0241 6.07943 59.7051 6.22266C59.3926 6.35938 59.1549 6.54818 58.9922 6.78906C58.8359 7.02995 58.7578 7.29362 58.7578 7.58008C58.7578 7.80794 58.8164 8.01628 58.9336 8.20508C59.0573 8.38737 59.2331 8.5599 59.4609 8.72266C59.6953 8.87891 59.9818 9.02865 60.3203 9.17188C60.6589 9.3151 61.0462 9.45182 61.4824 9.58203C62.2441 9.82292 62.918 10.0898 63.5039 10.3828C64.0964 10.6758 64.5944 11.0078 64.998 11.3789C65.4017 11.75 65.7044 12.1699 65.9062 12.6387C66.1146 13.1074 66.2188 13.638 66.2188 14.2305C66.2188 14.862 66.0951 15.4219 65.8477 15.9102C65.6068 16.3984 65.2552 16.8151 64.793 17.1602C64.3372 17.4987 63.7904 17.7559 63.1523 17.9316C62.5143 18.1074 61.8014 18.1953 61.0137 18.1953C60.2975 18.1953 59.5911 18.1042 58.8945 17.9219C58.1979 17.7331 57.5664 17.4466 57 17.0625C56.4401 16.6784 55.9909 16.1901 55.6523 15.5977C55.3203 14.9987 55.1543 14.2891 55.1543 13.4688H58.3379C58.3379 13.8984 58.3997 14.263 58.5234 14.5625C58.6471 14.8555 58.8229 15.0931 59.0508 15.2754C59.2852 15.4577 59.5684 15.5879 59.9004 15.666C60.2324 15.7441 60.6035 15.7832 61.0137 15.7832C61.4889 15.7832 61.873 15.7181 62.166 15.5879C62.4655 15.4512 62.6868 15.2656 62.8301 15.0312C62.9733 14.7969 63.0449 14.5365 63.0449 14.25ZM70.4824 3.78125V18H67.3086V3.78125H70.4824ZM81.3281 15.5391V18H74.1504V15.5391H81.3281ZM75.2344 3.78125V18H72.0508V3.78125H75.2344ZM85.1719 14.8457L88.3359 3.78125H91.8809L87.0078 18H84.6934L85.1719 14.8457ZM82.291 3.78125L85.4453 14.8457L85.9434 18H83.5996L78.7559 3.78125H82.291ZM97.2285 6.48633L93.5566 18H90.1582L95.4219 3.78125H97.5703L97.2285 6.48633ZM100.275 18L96.5938 6.48633L96.2129 3.78125H98.3906L103.674 18H100.275ZM100.119 12.707V15.168H92.707V12.707H100.119Z" fill="black"/>
<rect y="4" width="14" height="14" fill="#878787"/>
</svg>
