<svg width="486" height="103" viewBox="0 0 486 103" fill="none" xmlns="http://www.w3.org/2000/svg">
<path d="M322.059 94.9463C322.702 94.9463 323.303 94.8278 323.861 94.5908C324.428 94.3454 324.894 93.9857 325.258 93.5117C325.63 93.0293 325.842 92.4411 325.893 91.7471H327.34C327.298 92.6188 327.031 93.3975 326.54 94.083C326.058 94.7601 325.423 95.2933 324.636 95.6826C323.857 96.0635 322.998 96.2539 322.059 96.2539C321.102 96.2539 320.256 96.0804 319.52 95.7334C318.792 95.3864 318.182 94.904 317.691 94.2861C317.201 93.6598 316.828 92.932 316.574 92.1025C316.329 91.2646 316.206 90.3633 316.206 89.3984V88.8652C316.206 87.9004 316.329 87.0033 316.574 86.1738C316.828 85.3359 317.201 84.6081 317.691 83.9902C318.182 83.3639 318.792 82.8773 319.52 82.5303C320.247 82.1833 321.09 82.0098 322.046 82.0098C323.028 82.0098 323.908 82.2087 324.687 82.6064C325.474 83.0042 326.1 83.5671 326.565 84.2949C327.039 85.0228 327.298 85.8861 327.34 86.8848H325.893C325.85 86.1484 325.656 85.5137 325.309 84.9805C324.962 84.4473 324.505 84.0368 323.938 83.749C323.37 83.4613 322.74 83.3174 322.046 83.3174C321.267 83.3174 320.603 83.4697 320.053 83.7744C319.503 84.0706 319.054 84.4811 318.707 85.0059C318.368 85.5221 318.119 86.1146 317.958 86.7832C317.797 87.4434 317.717 88.1374 317.717 88.8652V89.3984C317.717 90.1348 317.793 90.8372 317.945 91.5059C318.106 92.166 318.356 92.7542 318.694 93.2705C319.041 93.7868 319.49 94.1973 320.04 94.502C320.599 94.7982 321.271 94.9463 322.059 94.9463ZM340.237 92.8262V82.2637H341.761V96H340.301L340.237 92.8262ZM340.517 90.2871L341.304 90.2617C341.304 91.125 341.202 91.9206 340.999 92.6484C340.796 93.3763 340.478 94.0111 340.047 94.5527C339.615 95.0944 339.057 95.5133 338.371 95.8096C337.686 96.1058 336.86 96.2539 335.895 96.2539C335.227 96.2539 334.613 96.1608 334.055 95.9746C333.505 95.7799 333.031 95.4753 332.633 95.0605C332.235 94.6458 331.926 94.1084 331.706 93.4482C331.494 92.7881 331.389 91.9883 331.389 91.0488V82.2637H332.899V91.0742C332.899 91.8105 332.98 92.4242 333.141 92.915C333.31 93.4059 333.538 93.7995 333.826 94.0957C334.122 94.3919 334.461 94.6035 334.842 94.7305C335.223 94.8574 335.633 94.9209 336.073 94.9209C337.19 94.9209 338.071 94.7051 338.714 94.2734C339.366 93.8418 339.827 93.2747 340.098 92.5723C340.377 91.8613 340.517 91.0996 340.517 90.2871ZM348.285 84.5361V96H346.774V82.2637H348.247L348.285 84.5361ZM353.147 82.1621L353.109 83.5586C352.94 83.5332 352.775 83.512 352.614 83.4951C352.453 83.4782 352.28 83.4697 352.094 83.4697C351.434 83.4697 350.854 83.5924 350.354 83.8379C349.864 84.0749 349.449 84.4092 349.11 84.8408C348.772 85.264 348.514 85.7633 348.336 86.3389C348.158 86.9059 348.057 87.5153 348.031 88.167L347.473 88.3828C347.473 87.4857 347.566 86.652 347.752 85.8818C347.938 85.1117 348.222 84.4388 348.602 83.8633C348.992 83.2793 349.478 82.8265 350.062 82.5049C350.655 82.1748 351.349 82.0098 352.144 82.0098C352.339 82.0098 352.53 82.0267 352.716 82.0605C352.91 82.0859 353.054 82.1198 353.147 82.1621ZM358.085 84.5361V96H356.574V82.2637H358.047L358.085 84.5361ZM362.947 82.1621L362.909 83.5586C362.74 83.5332 362.575 83.512 362.414 83.4951C362.253 83.4782 362.08 83.4697 361.893 83.4697C361.233 83.4697 360.654 83.5924 360.154 83.8379C359.663 84.0749 359.249 84.4092 358.91 84.8408C358.571 85.264 358.313 85.7633 358.136 86.3389C357.958 86.9059 357.856 87.5153 357.831 88.167L357.272 88.3828C357.272 87.4857 357.365 86.652 357.552 85.8818C357.738 85.1117 358.021 84.4388 358.402 83.8633C358.792 83.2793 359.278 82.8265 359.862 82.5049C360.455 82.1748 361.149 82.0098 361.944 82.0098C362.139 82.0098 362.329 82.0267 362.516 82.0605C362.71 82.0859 362.854 82.1198 362.947 82.1621ZM368.062 82.2637V96H366.552V82.2637H368.062ZM366.285 78.29C366.285 78.0023 366.374 77.7611 366.552 77.5664C366.738 77.3633 366.992 77.2617 367.313 77.2617C367.635 77.2617 367.889 77.3633 368.075 77.5664C368.27 77.7611 368.367 78.0023 368.367 78.29C368.367 78.5693 368.27 78.8105 368.075 79.0137C367.889 79.2083 367.635 79.3057 367.313 79.3057C366.992 79.3057 366.738 79.2083 366.552 79.0137C366.374 78.8105 366.285 78.5693 366.285 78.29ZM378.319 94.9463C378.962 94.9463 379.563 94.8278 380.122 94.5908C380.689 94.3454 381.154 93.9857 381.518 93.5117C381.891 93.0293 382.102 92.4411 382.153 91.7471H383.6C383.558 92.6188 383.291 93.3975 382.801 94.083C382.318 94.7601 381.683 95.2933 380.896 95.6826C380.118 96.0635 379.259 96.2539 378.319 96.2539C377.363 96.2539 376.516 96.0804 375.78 95.7334C375.052 95.3864 374.443 94.904 373.952 94.2861C373.461 93.6598 373.089 92.932 372.835 92.1025C372.589 91.2646 372.467 90.3633 372.467 89.3984V88.8652C372.467 87.9004 372.589 87.0033 372.835 86.1738C373.089 85.3359 373.461 84.6081 373.952 83.9902C374.443 83.3639 375.052 82.8773 375.78 82.5303C376.508 82.1833 377.35 82.0098 378.306 82.0098C379.288 82.0098 380.168 82.2087 380.947 82.6064C381.734 83.0042 382.36 83.5671 382.826 84.2949C383.3 85.0228 383.558 85.8861 383.6 86.8848H382.153C382.111 86.1484 381.916 85.5137 381.569 84.9805C381.222 84.4473 380.765 84.0368 380.198 83.749C379.631 83.4613 379 83.3174 378.306 83.3174C377.528 83.3174 376.863 83.4697 376.313 83.7744C375.763 84.0706 375.315 84.4811 374.968 85.0059C374.629 85.5221 374.379 86.1146 374.219 86.7832C374.058 87.4434 373.977 88.1374 373.977 88.8652V89.3984C373.977 90.1348 374.054 90.8372 374.206 91.5059C374.367 92.166 374.616 92.7542 374.955 93.2705C375.302 93.7868 375.75 94.1973 376.301 94.502C376.859 94.7982 377.532 94.9463 378.319 94.9463ZM396.498 92.8262V82.2637H398.021V96H396.561L396.498 92.8262ZM396.777 90.2871L397.564 90.2617C397.564 91.125 397.463 91.9206 397.26 92.6484C397.056 93.3763 396.739 94.0111 396.307 94.5527C395.876 95.0944 395.317 95.5133 394.632 95.8096C393.946 96.1058 393.121 96.2539 392.156 96.2539C391.487 96.2539 390.874 96.1608 390.315 95.9746C389.765 95.7799 389.291 95.4753 388.893 95.0605C388.496 94.6458 388.187 94.1084 387.967 93.4482C387.755 92.7881 387.649 91.9883 387.649 91.0488V82.2637H389.16V91.0742C389.16 91.8105 389.24 92.4242 389.401 92.915C389.57 93.4059 389.799 93.7995 390.087 94.0957C390.383 94.3919 390.721 94.6035 391.102 94.7305C391.483 94.8574 391.894 94.9209 392.334 94.9209C393.451 94.9209 394.331 94.7051 394.974 94.2734C395.626 93.8418 396.087 93.2747 396.358 92.5723C396.637 91.8613 396.777 91.0996 396.777 90.2871ZM404.723 76.5V96H403.213V76.5H404.723ZM418.713 92.8262V82.2637H420.236V96H418.776L418.713 92.8262ZM418.992 90.2871L419.779 90.2617C419.779 91.125 419.677 91.9206 419.474 92.6484C419.271 93.3763 418.954 94.0111 418.522 94.5527C418.091 95.0944 417.532 95.5133 416.846 95.8096C416.161 96.1058 415.336 96.2539 414.371 96.2539C413.702 96.2539 413.089 96.1608 412.53 95.9746C411.98 95.7799 411.506 95.4753 411.108 95.0605C410.71 94.6458 410.401 94.1084 410.181 93.4482C409.97 92.7881 409.864 91.9883 409.864 91.0488V82.2637H411.375V91.0742C411.375 91.8105 411.455 92.4242 411.616 92.915C411.785 93.4059 412.014 93.7995 412.301 94.0957C412.598 94.3919 412.936 94.6035 413.317 94.7305C413.698 94.8574 414.108 94.9209 414.549 94.9209C415.666 94.9209 416.546 94.7051 417.189 94.2734C417.841 93.8418 418.302 93.2747 418.573 92.5723C418.852 91.8613 418.992 91.0996 418.992 90.2871ZM426.684 85.1074V96H425.161V82.2637H426.621L426.684 85.1074ZM426.405 88.2812L425.669 87.9004C425.719 87.0879 425.872 86.3262 426.126 85.6152C426.388 84.9043 426.752 84.278 427.217 83.7363C427.683 83.1947 428.242 82.7715 428.893 82.4668C429.545 82.1621 430.285 82.0098 431.115 82.0098C431.784 82.0098 432.389 82.1029 432.93 82.2891C433.48 82.4668 433.946 82.7503 434.327 83.1396C434.716 83.5205 435.017 84.0199 435.228 84.6377C435.44 85.2555 435.546 85.9961 435.546 86.8594V96H434.035V86.9102C434.035 85.9961 433.891 85.2809 433.603 84.7646C433.324 84.2484 432.93 83.8802 432.423 83.6602C431.923 83.4401 431.343 83.3301 430.683 83.3301C429.905 83.3301 429.244 83.4909 428.703 83.8125C428.17 84.1257 427.734 84.5361 427.395 85.0439C427.065 85.5433 426.82 86.0807 426.659 86.6562C426.498 87.2233 426.413 87.765 426.405 88.2812ZM435.533 87.0879L434.517 87.1133C434.56 86.4447 434.712 85.8057 434.974 85.1963C435.245 84.5869 435.613 84.0452 436.079 83.5713C436.544 83.0889 437.099 82.708 437.742 82.4287C438.394 82.1494 439.126 82.0098 439.938 82.0098C440.649 82.0098 441.284 82.1071 441.842 82.3018C442.401 82.488 442.871 82.7884 443.252 83.2031C443.641 83.6094 443.937 84.1299 444.14 84.7646C444.343 85.3994 444.445 86.1611 444.445 87.0498V96H442.922V87.0371C442.922 86.0638 442.778 85.3105 442.49 84.7773C442.211 84.2357 441.821 83.859 441.322 83.6475C440.823 83.4359 440.239 83.3301 439.57 83.3301C438.91 83.3385 438.33 83.4613 437.831 83.6982C437.331 83.9268 436.912 84.2314 436.574 84.6123C436.244 84.9847 435.99 85.3867 435.812 85.8184C435.643 86.25 435.55 86.6732 435.533 87.0879Z" fill="#BDBDBD"/>
<path d="M167.949 58.7075H160.046V56.708H167.949C169.6 56.708 170.939 56.4414 171.967 55.9082C173.008 55.3623 173.764 54.626 174.233 53.6992C174.716 52.7725 174.957 51.7314 174.957 50.5762C174.957 49.4463 174.716 48.4053 174.233 47.4531C173.764 46.501 173.008 45.7393 171.967 45.168C170.939 44.584 169.6 44.292 167.949 44.292H160.865V70H158.523V42.2734H167.949C169.98 42.2734 171.688 42.6226 173.072 43.3208C174.468 44.019 175.522 44.9902 176.233 46.2344C176.944 47.4785 177.299 48.9131 177.299 50.5381C177.299 52.2393 176.944 53.7056 176.233 54.937C175.522 56.1558 174.475 57.0889 173.091 57.7363C171.707 58.3838 169.993 58.7075 167.949 58.7075ZM183.668 42.2734H192.675C194.592 42.2734 196.255 42.5845 197.665 43.2065C199.074 43.8286 200.159 44.749 200.921 45.9678C201.695 47.1738 202.083 48.6592 202.083 50.4238C202.083 51.7314 201.803 52.9185 201.245 53.9849C200.699 55.0513 199.943 55.9463 198.979 56.6699C198.014 57.3809 196.897 57.8696 195.627 58.1362L194.808 58.4409H185.191L185.153 56.4414H193.209C194.656 56.4414 195.862 56.1621 196.827 55.6035C197.792 55.0449 198.515 54.3086 198.998 53.3945C199.493 52.4678 199.74 51.4775 199.74 50.4238C199.74 49.167 199.467 48.0815 198.921 47.1675C198.388 46.2407 197.595 45.5298 196.541 45.0347C195.487 44.5396 194.199 44.292 192.675 44.292H186.01V70H183.668V42.2734ZM200.788 70L193.608 57.603L196.122 57.584L203.282 69.7524V70H200.788ZM230.16 54.6514V57.6221C230.16 59.5645 229.906 61.3228 229.399 62.897C228.903 64.4585 228.18 65.7979 227.228 66.915C226.288 68.0322 225.158 68.8892 223.838 69.4858C222.518 70.0825 221.032 70.3809 219.382 70.3809C217.77 70.3809 216.297 70.0825 214.964 69.4858C213.644 68.8892 212.507 68.0322 211.555 66.915C210.603 65.7979 209.867 64.4585 209.346 62.897C208.826 61.3228 208.566 59.5645 208.566 57.6221V54.6514C208.566 52.709 208.819 50.957 209.327 49.3955C209.848 47.8213 210.584 46.4756 211.536 45.3584C212.488 44.2412 213.625 43.3843 214.945 42.7876C216.265 42.1909 217.732 41.8926 219.344 41.8926C220.994 41.8926 222.48 42.1909 223.8 42.7876C225.12 43.3843 226.257 44.2412 227.209 45.3584C228.161 46.4756 228.891 47.8213 229.399 49.3955C229.906 50.957 230.16 52.709 230.16 54.6514ZM227.837 57.6221V54.6133C227.837 52.9756 227.647 51.5029 227.266 50.1953C226.898 48.8877 226.345 47.7705 225.609 46.8438C224.885 45.917 223.997 45.2061 222.943 44.7109C221.889 44.2158 220.69 43.9683 219.344 43.9683C218.036 43.9683 216.862 44.2158 215.821 44.7109C214.78 45.2061 213.891 45.917 213.155 46.8438C212.431 47.7705 211.873 48.8877 211.479 50.1953C211.098 51.5029 210.908 52.9756 210.908 54.6133V57.6221C210.908 59.2725 211.098 60.7578 211.479 62.0781C211.873 63.3857 212.438 64.5093 213.174 65.4487C213.91 66.3755 214.799 67.0864 215.84 67.5815C216.894 68.0767 218.074 68.3242 219.382 68.3242C220.74 68.3242 221.94 68.0767 222.981 67.5815C224.022 67.0864 224.904 66.3755 225.628 65.4487C226.352 64.5093 226.898 63.3857 227.266 62.0781C227.647 60.7578 227.837 59.2725 227.837 57.6221ZM239.595 42.2734V70H237.253V42.2734H239.595ZM252.506 55.0322V57.0508H238.814V55.0322H252.506ZM254.429 42.2734V44.292H238.814V42.2734H254.429ZM277.594 68.0005V70H261.998V68.0005H277.594ZM262.702 42.2734V70H260.36V42.2734H262.702ZM275.652 54.7085V56.708H261.998V54.7085H275.652ZM277.499 42.2734V44.292H261.998V42.2734H277.499ZM299.426 63.1826C299.426 62.4209 299.299 61.7417 299.045 61.145C298.791 60.5483 298.372 60.0151 297.788 59.5454C297.217 59.063 296.442 58.6187 295.465 58.2124C294.5 57.7935 293.294 57.3809 291.847 56.9746C290.463 56.5811 289.212 56.1494 288.095 55.6797C286.978 55.21 286.019 54.6704 285.22 54.061C284.433 53.4517 283.829 52.7407 283.411 51.9282C282.992 51.103 282.782 50.1445 282.782 49.0527C282.782 47.9863 283.011 47.0151 283.468 46.1392C283.925 45.2632 284.566 44.5078 285.391 43.873C286.229 43.2383 287.213 42.7495 288.343 42.4067C289.485 42.064 290.736 41.8926 292.094 41.8926C294.037 41.8926 295.712 42.2607 297.121 42.9971C298.543 43.7334 299.642 44.73 300.416 45.9868C301.203 47.231 301.597 48.6274 301.597 50.1763H299.254C299.254 48.9702 298.969 47.8975 298.397 46.958C297.839 46.0059 297.026 45.2632 295.96 44.73C294.906 44.1841 293.618 43.9111 292.094 43.9111C290.571 43.9111 289.288 44.146 288.247 44.6157C287.219 45.0728 286.438 45.6885 285.905 46.4629C285.385 47.2246 285.124 48.0752 285.124 49.0146C285.124 49.6748 285.251 50.2842 285.505 50.8428C285.759 51.3887 286.172 51.9028 286.743 52.3853C287.327 52.855 288.095 53.2993 289.047 53.7183C289.999 54.1245 291.174 54.5117 292.57 54.8799C294.043 55.2861 295.35 55.7368 296.493 56.2319C297.636 56.7271 298.6 57.2983 299.388 57.9458C300.175 58.5806 300.771 59.3232 301.178 60.1738C301.584 61.0244 301.787 62.0146 301.787 63.1445C301.787 64.2744 301.546 65.29 301.063 66.1914C300.594 67.0801 299.927 67.8354 299.064 68.4575C298.213 69.0796 297.204 69.5557 296.036 69.8857C294.881 70.2158 293.618 70.3809 292.246 70.3809C291.015 70.3809 289.79 70.2222 288.571 69.9048C287.352 69.5874 286.235 69.0986 285.22 68.4385C284.217 67.7656 283.411 66.9023 282.801 65.8486C282.204 64.7949 281.906 63.5381 281.906 62.0781H284.229C284.229 63.2461 284.464 64.23 284.934 65.0298C285.404 65.8296 286.026 66.4771 286.8 66.9722C287.587 67.4673 288.451 67.8291 289.39 68.0576C290.342 68.2734 291.294 68.3813 292.246 68.3813C293.706 68.3813 294.97 68.1655 296.036 67.7339C297.115 67.3022 297.947 66.6992 298.531 65.9248C299.127 65.1377 299.426 64.2236 299.426 63.1826ZM323.714 63.1826C323.714 62.4209 323.587 61.7417 323.333 61.145C323.079 60.5483 322.66 60.0151 322.076 59.5454C321.505 59.063 320.73 58.6187 319.753 58.2124C318.788 57.7935 317.582 57.3809 316.135 56.9746C314.751 56.5811 313.5 56.1494 312.383 55.6797C311.266 55.21 310.308 54.6704 309.508 54.061C308.721 53.4517 308.118 52.7407 307.699 51.9282C307.28 51.103 307.07 50.1445 307.07 49.0527C307.07 47.9863 307.299 47.0151 307.756 46.1392C308.213 45.2632 308.854 44.5078 309.679 43.873C310.517 43.2383 311.501 42.7495 312.631 42.4067C313.773 42.064 315.024 41.8926 316.382 41.8926C318.325 41.8926 320 42.2607 321.41 42.9971C322.832 43.7334 323.93 44.73 324.704 45.9868C325.491 47.231 325.885 48.6274 325.885 50.1763H323.542C323.542 48.9702 323.257 47.8975 322.686 46.958C322.127 46.0059 321.314 45.2632 320.248 44.73C319.194 44.1841 317.906 43.9111 316.382 43.9111C314.859 43.9111 313.577 44.146 312.536 44.6157C311.507 45.0728 310.727 45.6885 310.193 46.4629C309.673 47.2246 309.413 48.0752 309.413 49.0146C309.413 49.6748 309.54 50.2842 309.793 50.8428C310.047 51.3887 310.46 51.9028 311.031 52.3853C311.615 52.855 312.383 53.2993 313.335 53.7183C314.288 54.1245 315.462 54.5117 316.858 54.8799C318.331 55.2861 319.639 55.7368 320.781 56.2319C321.924 56.7271 322.889 57.2983 323.676 57.9458C324.463 58.5806 325.06 59.3232 325.466 60.1738C325.872 61.0244 326.075 62.0146 326.075 63.1445C326.075 64.2744 325.834 65.29 325.352 66.1914C324.882 67.0801 324.215 67.8354 323.352 68.4575C322.501 69.0796 321.492 69.5557 320.324 69.8857C319.169 70.2158 317.906 70.3809 316.535 70.3809C315.303 70.3809 314.078 70.2222 312.859 69.9048C311.641 69.5874 310.523 69.0986 309.508 68.4385C308.505 67.7656 307.699 66.9023 307.089 65.8486C306.493 64.7949 306.194 63.5381 306.194 62.0781H308.518C308.518 63.2461 308.752 64.23 309.222 65.0298C309.692 65.8296 310.314 66.4771 311.088 66.9722C311.875 67.4673 312.739 67.8291 313.678 68.0576C314.63 68.2734 315.583 68.3813 316.535 68.3813C317.995 68.3813 319.258 68.1655 320.324 67.7339C321.403 67.3022 322.235 66.6992 322.819 65.9248C323.416 65.1377 323.714 64.2236 323.714 63.1826ZM335.167 42.2734V70H332.825V42.2734H335.167ZM364.349 54.6514V57.6221C364.349 59.5645 364.095 61.3228 363.588 62.897C363.092 64.4585 362.369 65.7979 361.417 66.915C360.477 68.0322 359.347 68.8892 358.027 69.4858C356.707 70.0825 355.221 70.3809 353.571 70.3809C351.959 70.3809 350.486 70.0825 349.153 69.4858C347.833 68.8892 346.696 68.0322 345.744 66.915C344.792 65.7979 344.056 64.4585 343.535 62.897C343.015 61.3228 342.755 59.5645 342.755 57.6221V54.6514C342.755 52.709 343.008 50.957 343.516 49.3955C344.037 47.8213 344.773 46.4756 345.725 45.3584C346.677 44.2412 347.814 43.3843 349.134 42.7876C350.454 42.1909 351.921 41.8926 353.533 41.8926C355.183 41.8926 356.669 42.1909 357.989 42.7876C359.309 43.3843 360.445 44.2412 361.398 45.3584C362.35 46.4756 363.08 47.8213 363.588 49.3955C364.095 50.957 364.349 52.709 364.349 54.6514ZM362.026 57.6221V54.6133C362.026 52.9756 361.836 51.5029 361.455 50.1953C361.087 48.8877 360.534 47.7705 359.798 46.8438C359.074 45.917 358.186 45.2061 357.132 44.7109C356.078 44.2158 354.879 43.9683 353.533 43.9683C352.225 43.9683 351.051 44.2158 350.01 44.7109C348.969 45.2061 348.08 45.917 347.344 46.8438C346.62 47.7705 346.062 48.8877 345.668 50.1953C345.287 51.5029 345.097 52.9756 345.097 54.6133V57.6221C345.097 59.2725 345.287 60.7578 345.668 62.0781C346.062 63.3857 346.627 64.5093 347.363 65.4487C348.099 66.3755 348.988 67.0864 350.029 67.5815C351.083 68.0767 352.263 68.3242 353.571 68.3242C354.929 68.3242 356.129 68.0767 357.17 67.5815C358.211 67.0864 359.093 66.3755 359.817 65.4487C360.541 64.5093 361.087 63.3857 361.455 62.0781C361.836 60.7578 362.026 59.2725 362.026 57.6221ZM392.084 42.2734V70H389.723L373.784 46.3105V70H371.442V42.2734H373.784L389.761 65.9629V42.2734H392.084ZM409.783 43.9302L400.186 70H397.748L408.222 42.2734H409.917L409.783 43.9302ZM418.505 70L408.888 43.9302L408.755 42.2734H410.45L420.943 70H418.505ZM416.791 60.2119V62.2305H402.071V60.2119H416.791ZM442.26 68.0005V70H427.883V68.0005H442.26ZM428.568 42.2734V70H426.226V42.2734H428.568Z" fill="#878787"/>
<circle cx="134.5" cy="60.5" r="9.5" fill="#878787"/>
<path d="M33.9346 41.5942H15.8555L15.7588 31.0562H30.6958C33.3384 31.0562 35.4814 30.7339 37.125 30.0894C38.8008 29.4448 40.0254 28.5103 40.7988 27.2856C41.5723 26.0288 41.959 24.4819 41.959 22.645C41.959 20.5503 41.5723 18.8584 40.7988 17.5693C40.0254 16.2803 38.8008 15.3457 37.125 14.7656C35.4814 14.1533 33.3545 13.8472 30.7441 13.8472H21.5596V72H5.80078V1.61719H30.7441C34.9658 1.61719 38.7363 2.00391 42.0557 2.77734C45.375 3.55078 48.1948 4.74316 50.5151 6.35449C52.8677 7.96582 54.6562 9.97998 55.8809 12.397C57.1055 14.814 57.7178 17.666 57.7178 20.9531C57.7178 23.8213 57.0732 26.4961 55.7842 28.9775C54.5273 31.459 52.4971 33.4731 49.6934 35.02C46.8896 36.5669 43.1353 37.4048 38.4302 37.5337L33.9346 41.5942ZM33.3062 72H11.8433L17.5474 59.8184H33.3062C35.7231 59.8184 37.689 59.4316 39.2036 58.6582C40.7183 57.8848 41.8301 56.8374 42.5391 55.5161C43.248 54.1948 43.6025 52.7124 43.6025 51.0688C43.6025 49.1353 43.2642 47.4595 42.5874 46.0415C41.9429 44.6235 40.9116 43.5278 39.4937 42.7544C38.1079 41.981 36.2549 41.5942 33.9346 41.5942H19.8193L19.916 31.0562H37.1733L40.8472 35.2134C45.3267 35.1167 48.9038 35.8418 51.5786 37.3887C54.2856 38.9033 56.2354 40.9014 57.4277 43.3828C58.6201 45.8643 59.2163 48.4907 59.2163 51.2622C59.2163 55.8384 58.2334 59.6733 56.2676 62.7671C54.3018 65.8286 51.3853 68.1328 47.5181 69.6797C43.6831 71.2266 38.9458 72 33.3062 72ZM101.953 53.4375C101.953 52.2451 101.775 51.1816 101.421 50.2471C101.066 49.2803 100.422 48.394 99.4873 47.5884C98.5527 46.7827 97.2314 45.9771 95.5234 45.1714C93.8154 44.3335 91.5756 43.4795 88.8042 42.6094C85.646 41.5781 82.6328 40.418 79.7646 39.1289C76.9287 37.8076 74.3989 36.2769 72.1753 34.5366C69.9516 32.7964 68.1953 30.7661 66.9062 28.4458C65.6494 26.1255 65.021 23.4185 65.021 20.3247C65.021 17.3276 65.6816 14.6206 67.0029 12.2036C68.3242 9.78662 70.1772 7.72412 72.562 6.01611C74.9467 4.27588 77.7505 2.95459 80.9731 2.05225C84.1958 1.11768 87.7407 0.650391 91.6079 0.650391C96.7641 0.650391 101.292 1.56885 105.191 3.40576C109.123 5.21045 112.185 7.75635 114.376 11.0435C116.567 14.2983 117.663 18.085 117.663 22.4033H102.001C102.001 20.502 101.598 18.8262 100.792 17.376C100.019 15.8936 98.8266 14.7334 97.2153 13.8955C95.6362 13.0576 93.6543 12.6387 91.2695 12.6387C88.9492 12.6387 86.9995 12.9932 85.4204 13.7021C83.8735 14.3789 82.6972 15.3135 81.8916 16.5059C81.1181 17.6982 80.7314 19.0034 80.7314 20.4214C80.7314 21.5493 81.0214 22.5806 81.6015 23.5151C82.2138 24.4175 83.0839 25.2715 84.2119 26.0771C85.372 26.8506 86.79 27.5918 88.4658 28.3008C90.1416 29.0098 92.059 29.6865 94.2182 30.3311C97.9887 31.5234 101.324 32.8447 104.225 34.2949C107.157 35.7451 109.623 37.3887 111.621 39.2256C113.619 41.0625 115.117 43.1411 116.116 45.4614C117.147 47.7817 117.663 50.4082 117.663 53.3408C117.663 56.4668 117.051 59.2383 115.826 61.6553C114.634 64.0723 112.894 66.1348 110.605 67.8428C108.35 69.5186 105.643 70.7915 102.484 71.6616C99.3261 72.5317 95.7973 72.9668 91.8979 72.9668C88.353 72.9668 84.8564 72.5156 81.4082 71.6133C77.9599 70.6787 74.8339 69.2607 72.0302 67.3594C69.2588 65.458 67.0351 63.041 65.3593 60.1084C63.7158 57.1436 62.894 53.6309 62.894 49.5703H78.6528C78.6528 51.6973 78.9589 53.502 79.5713 54.9844C80.1836 56.4346 81.0537 57.6108 82.1816 58.5132C83.3418 59.4155 84.7436 60.0601 86.3872 60.4468C88.0307 60.8335 89.8676 61.0269 91.8979 61.0269C94.2505 61.0269 96.1518 60.7046 97.602 60.0601C99.0844 59.3833 100.18 58.4648 100.889 57.3047C101.598 56.1445 101.953 54.8555 101.953 53.4375Z" fill="#878787"/>
</svg>
