<svg width="134" height="71" viewBox="0 0 134 71" fill="none" xmlns="http://www.w3.org/2000/svg">
<g filter="url(#filter0_d_179_1462)">
<rect x="4" width="125.316" height="62.6582" rx="10" fill="#386123"/>
</g>
<path d="M85.0909 18.0704C84.6798 17.358 84.091 16.7644 83.3821 16.3474C82.6732 15.9303 81.8683 15.7042 81.0459 15.6909H50.5892L49.2092 10.3134C49.0697 9.79434 48.7587 9.33774 48.3266 9.01801C47.8945 8.69829 47.3669 8.53426 46.8297 8.55267H42.0709C41.4398 8.55267 40.8346 8.80335 40.3884 9.24958C39.9422 9.69581 39.6915 10.301 39.6915 10.9321C39.6915 11.5632 39.9422 12.1684 40.3884 12.6146C40.8346 13.0608 41.4398 13.3115 42.0709 13.3115H45.0214L51.5886 37.7244C51.728 38.2435 52.0391 38.7001 52.4712 39.0199C52.9032 39.3396 53.4308 39.5036 53.968 39.4852H75.3829C75.8223 39.4839 76.2527 39.3609 76.6265 39.1299C77.0003 38.8989 77.3028 38.5689 77.5006 38.1765L85.3051 22.5675C85.6433 21.8585 85.8008 21.0767 85.7635 20.292C85.7261 19.5073 85.495 18.7441 85.0909 18.0704ZM73.9076 34.7264H55.7764L51.8979 20.4498H81.0459L73.9076 34.7264Z" fill="white"/>
<path d="M52.7784 51.3825C54.7496 51.3825 56.3475 49.7846 56.3475 47.8134C56.3475 45.8422 54.7496 44.2443 52.7784 44.2443C50.8072 44.2443 49.2092 45.8422 49.2092 47.8134C49.2092 49.7846 50.8072 51.3825 52.7784 51.3825Z" fill="white"/>
<path d="M76.5725 51.3825C78.5437 51.3825 80.1416 49.7846 80.1416 47.8134C80.1416 45.8422 78.5437 44.2443 76.5725 44.2443C74.6013 44.2443 73.0034 45.8422 73.0034 47.8134C73.0034 49.7846 74.6013 51.3825 76.5725 51.3825Z" fill="white"/>
<defs>
<filter id="filter0_d_179_1462" x="0" y="0" width="133.316" height="70.6582" filterUnits="userSpaceOnUse" color-interpolation-filters="sRGB">
<feFlood flood-opacity="0" result="BackgroundImageFix"/>
<feColorMatrix in="SourceAlpha" type="matrix" values="0 0 0 0 0 0 0 0 0 0 0 0 0 0 0 0 0 0 127 0" result="hardAlpha"/>
<feOffset dy="4"/>
<feGaussianBlur stdDeviation="2"/>
<feComposite in2="hardAlpha" operator="out"/>
<feColorMatrix type="matrix" values="0 0 0 0 0 0 0 0 0 0 0 0 0 0 0 0 0 0 0.25 0"/>
<feBlend mode="normal" in2="BackgroundImageFix" result="effect1_dropShadow_179_1462"/>
<feBlend mode="normal" in="SourceGraphic" in2="effect1_dropShadow_179_1462" result="shape"/>
</filter>
</defs>
</svg>
