<svg width="59" height="59" viewBox="0 0 59 59" fill="none" xmlns="http://www.w3.org/2000/svg">
<path d="M51.8217 17.2082C51.397 16.4722 50.7887 15.8589 50.0563 15.428C49.3238 14.9972 48.4922 14.7635 47.6426 14.7499H16.1759L14.7501 9.19402C14.606 8.65771 14.2846 8.18597 13.8382 7.85564C13.3918 7.5253 12.8467 7.35584 12.2917 7.37485H7.37508C6.72309 7.37485 6.0978 7.63386 5.63678 8.09488C5.17575 8.55591 4.91675 9.1812 4.91675 9.83319C4.91675 10.4852 5.17575 11.1105 5.63678 11.5715C6.0978 12.0325 6.72309 12.2915 7.37508 12.2915H10.4234L17.2084 37.514C17.3525 38.0503 17.6739 38.5221 18.1203 38.8524C18.5667 39.1827 19.1117 39.3522 19.6667 39.3332H41.7917C42.2457 39.3318 42.6904 39.2048 43.0766 38.9661C43.4628 38.7274 43.7754 38.3865 43.9797 37.9811L52.043 21.8544C52.3925 21.1219 52.5552 20.3142 52.5166 19.5035C52.478 18.6928 52.2393 17.9042 51.8217 17.2082ZM40.2676 34.4165H21.5351L17.528 19.6665H47.6426L40.2676 34.4165Z" fill="black"/>
<path d="M18.4376 51.625C20.4742 51.625 22.1251 49.9741 22.1251 47.9375C22.1251 45.9009 20.4742 44.25 18.4376 44.25C16.4011 44.25 14.7501 45.9009 14.7501 47.9375C14.7501 49.9741 16.4011 51.625 18.4376 51.625Z" fill="black"/>
<path d="M43.0208 51.625C45.0574 51.625 46.7083 49.9741 46.7083 47.9375C46.7083 45.9009 45.0574 44.25 43.0208 44.25C40.9843 44.25 39.3333 45.9009 39.3333 47.9375C39.3333 49.9741 40.9843 51.625 43.0208 51.625Z" fill="black"/>
</svg>
