<svg width="77" height="76" viewBox="0 0 77 76" fill="none" xmlns="http://www.w3.org/2000/svg">
<path d="M38.2059 0.141174C43.4946 0.141174 48.4641 1.13575 53.1145 3.12489C57.7648 5.11404 61.8225 7.82651 65.2875 11.2623C68.7525 14.6981 71.488 18.7065 73.494 23.2876C75.5001 27.8687 76.5031 32.7813 76.5031 38.0254C76.5031 43.2695 75.5001 48.1972 73.494 52.8084C71.488 57.4196 68.7525 61.4431 65.2875 64.8789C61.8225 68.3147 57.7648 71.0271 53.1145 73.0163C48.4641 75.0054 43.4946 76 38.2059 76C32.9173 76 27.963 75.0054 23.343 73.0163C18.723 71.0271 14.6806 68.3147 11.2156 64.8789C7.75061 61.4431 5.0151 57.4196 3.00906 52.8084C1.00302 48.1972 0 43.2695 0 38.0254C0 32.7813 1.00302 27.8687 3.00906 23.2876C5.0151 18.7065 7.75061 14.6981 11.2156 11.2623C14.6806 7.82651 18.723 5.11404 23.343 3.12489C27.963 1.13575 32.9173 0.141174 38.2059 0.141174ZM52.613 16.6873H44.4976C42.9171 16.6873 41.4582 16.9585 40.1208 17.501C38.7834 18.0435 37.6133 18.7668 36.6102 19.671C35.6072 20.5751 34.8321 21.5998 34.285 22.7451C33.7379 23.8904 33.4644 25.0356 33.4644 26.1809V30.9729H26.2609V40.3762H33.4644V59.3635H43.0387V40.3762H50.151V30.9729H43.0387V28.5317C43.0387 27.8084 43.3274 27.2358 43.9049 26.8138C44.4824 26.3919 44.9839 26.1809 45.4095 26.1809H52.613V16.6873Z" fill="#066A95"/>
</svg>
