<svg width="362" height="67" viewBox="0 0 362 67" fill="none" xmlns="http://www.w3.org/2000/svg">
<path d="M108.355 31.7812V46H105.172V31.7812H108.355ZM113.951 37.7773V40.2383H107.467V37.7773H113.951ZM114.576 31.7812V34.252H107.467V31.7812H114.576ZM124.712 31.7812H127.896V41.1172C127.896 42.224 127.661 43.1549 127.193 43.9102C126.73 44.6654 126.086 45.235 125.259 45.6191C124.432 46.0033 123.475 46.1953 122.388 46.1953C121.294 46.1953 120.331 46.0033 119.497 45.6191C118.67 45.235 118.019 44.6654 117.544 43.9102C117.075 43.1549 116.841 42.224 116.841 41.1172V31.7812H120.034V41.1172C120.034 41.7292 120.126 42.2305 120.308 42.6211C120.497 43.0052 120.767 43.2884 121.118 43.4707C121.47 43.6465 121.893 43.7344 122.388 43.7344C122.883 43.7344 123.303 43.6465 123.648 43.4707C123.999 43.2884 124.263 43.0052 124.439 42.6211C124.621 42.2305 124.712 41.7292 124.712 41.1172V31.7812ZM140.248 43.5391V46H133.071V43.5391H140.248ZM134.155 31.7812V46H130.971V31.7812H134.155ZM151.888 43.5391V46H144.711V43.5391H151.888ZM145.795 31.7812V46H142.611V31.7812H145.795ZM167.404 42.25C167.404 42.0091 167.368 41.7943 167.297 41.6055C167.225 41.4102 167.095 41.2311 166.906 41.0684C166.717 40.9056 166.451 40.7428 166.105 40.5801C165.76 40.4108 165.308 40.2383 164.748 40.0625C164.11 39.8542 163.501 39.6198 162.922 39.3594C162.349 39.0924 161.838 38.7832 161.389 38.4316C160.939 38.0801 160.585 37.6699 160.324 37.2012C160.07 36.7324 159.943 36.1855 159.943 35.5605C159.943 34.9551 160.077 34.4082 160.344 33.9199C160.611 33.4316 160.985 33.015 161.467 32.6699C161.949 32.3184 162.515 32.0514 163.166 31.8691C163.817 31.6803 164.533 31.5859 165.314 31.5859C166.356 31.5859 167.271 31.7715 168.059 32.1426C168.853 32.5072 169.471 33.0215 169.914 33.6855C170.357 34.3431 170.578 35.1081 170.578 35.9805H167.414C167.414 35.5964 167.333 35.2578 167.17 34.9648C167.014 34.6654 166.773 34.431 166.447 34.2617C166.128 34.0924 165.728 34.0078 165.246 34.0078C164.777 34.0078 164.383 34.0794 164.064 34.2227C163.752 34.3594 163.514 34.5482 163.352 34.7891C163.195 35.0299 163.117 35.2936 163.117 35.5801C163.117 35.8079 163.176 36.0163 163.293 36.2051C163.417 36.3874 163.592 36.5599 163.82 36.7227C164.055 36.8789 164.341 37.0286 164.68 37.1719C165.018 37.3151 165.406 37.4518 165.842 37.582C166.604 37.8229 167.277 38.0898 167.863 38.3828C168.456 38.6758 168.954 39.0078 169.357 39.3789C169.761 39.75 170.064 40.1699 170.266 40.6387C170.474 41.1074 170.578 41.638 170.578 42.2305C170.578 42.862 170.454 43.4219 170.207 43.9102C169.966 44.3984 169.615 44.8151 169.152 45.1602C168.697 45.4987 168.15 45.7559 167.512 45.9316C166.874 46.1074 166.161 46.1953 165.373 46.1953C164.657 46.1953 163.951 46.1042 163.254 45.9219C162.557 45.7331 161.926 45.4466 161.359 45.0625C160.799 44.6784 160.35 44.1901 160.012 43.5977C159.68 42.9987 159.514 42.2891 159.514 41.4688H162.697C162.697 41.8984 162.759 42.263 162.883 42.5625C163.007 42.8555 163.182 43.0931 163.41 43.2754C163.645 43.4577 163.928 43.5879 164.26 43.666C164.592 43.7441 164.963 43.7832 165.373 43.7832C165.848 43.7832 166.232 43.7181 166.525 43.5879C166.825 43.4512 167.046 43.2656 167.189 43.0312C167.333 42.7969 167.404 42.5365 167.404 42.25ZM179.874 31.7812V46H176.7V31.7812H179.874ZM184.2 31.7812V34.252H172.462V31.7812H184.2ZM191.368 34.4863L187.696 46H184.297L189.561 31.7812H191.709L191.368 34.4863ZM194.414 46L190.733 34.4863L190.352 31.7812H192.53L197.813 46H194.414ZM194.258 40.707V43.168H186.846V40.707H194.258ZM207.773 41.2344H210.937C210.885 42.2109 210.618 43.0736 210.136 43.8223C209.661 44.5645 209 45.1471 208.154 45.5703C207.308 45.987 206.302 46.1953 205.136 46.1953C204.205 46.1953 203.372 46.0358 202.636 45.7168C201.901 45.3978 201.276 44.9421 200.761 44.3496C200.254 43.7507 199.863 43.0312 199.589 42.1914C199.323 41.3451 199.189 40.3913 199.189 39.3301V38.4609C199.189 37.3997 199.329 36.446 199.609 35.5996C199.889 34.7533 200.289 34.0306 200.81 33.4316C201.331 32.8327 201.956 32.3737 202.685 32.0547C203.414 31.7357 204.228 31.5762 205.127 31.5762C206.338 31.5762 207.36 31.7943 208.193 32.2305C209.026 32.6667 209.671 33.2656 210.127 34.0273C210.589 34.7891 210.865 35.6582 210.957 36.6348H207.783C207.757 36.0814 207.653 35.6159 207.47 35.2383C207.288 34.8542 207.008 34.5645 206.63 34.3691C206.253 34.1738 205.752 34.0762 205.127 34.0762C204.671 34.0762 204.27 34.1608 203.925 34.3301C203.587 34.4993 203.304 34.763 203.076 35.1211C202.854 35.4792 202.688 35.9349 202.578 36.4883C202.467 37.0352 202.412 37.6862 202.412 38.4414V39.3301C202.412 40.0788 202.461 40.7266 202.558 41.2734C202.656 41.8203 202.812 42.2728 203.027 42.6309C203.248 42.9889 203.532 43.2559 203.877 43.4316C204.222 43.6074 204.642 43.6953 205.136 43.6953C205.703 43.6953 206.175 43.6074 206.552 43.4316C206.93 43.2493 207.22 42.9759 207.421 42.6113C207.623 42.2467 207.74 41.7878 207.773 41.2344ZM216.688 31.7812V46H213.505V31.7812H216.688ZM225.184 31.7812L219.618 38.8906L216.376 42.4062L215.8 39.4473L217.938 36.3809L221.278 31.7812H225.184ZM221.493 46L217.567 39.5059L219.989 37.6211L225.262 46H221.493Z" fill="#878787"/>
<line x1="87" y1="41.5" x2="32" y2="41.5" stroke="#878787"/>
<line x1="297" y1="41.5" x2="242" y2="41.5" stroke="#878787"/>
<path d="M9.68066 14.875C9.68066 14.61 9.64128 14.3737 9.5625 14.166C9.48372 13.9512 9.34049 13.7542 9.13281 13.5752C8.92513 13.3962 8.63151 13.2171 8.25195 13.0381C7.8724 12.8519 7.37467 12.6621 6.75879 12.4688C6.05697 12.2396 5.38737 11.9818 4.75 11.6953C4.11979 11.4017 3.55762 11.0615 3.06348 10.6748C2.56934 10.2881 2.17904 9.83691 1.89258 9.32129C1.61328 8.80566 1.47363 8.2041 1.47363 7.5166C1.47363 6.85059 1.62044 6.24902 1.91406 5.71191C2.20768 5.1748 2.61947 4.71647 3.14941 4.33691C3.67936 3.9502 4.30241 3.65658 5.01855 3.45605C5.7347 3.24837 6.52246 3.14453 7.38184 3.14453C8.52767 3.14453 9.53385 3.34863 10.4004 3.75684C11.2741 4.15788 11.9544 4.72363 12.4414 5.4541C12.9284 6.17741 13.1719 7.01888 13.1719 7.97852H9.69141C9.69141 7.55599 9.60189 7.18359 9.42285 6.86133C9.25098 6.5319 8.986 6.27409 8.62793 6.08789C8.27702 5.90169 7.83659 5.80859 7.30664 5.80859C6.79102 5.80859 6.35775 5.88737 6.00684 6.04492C5.66309 6.19531 5.40169 6.40299 5.22266 6.66797C5.05078 6.93294 4.96484 7.22298 4.96484 7.53809C4.96484 7.78874 5.0293 8.0179 5.1582 8.22559C5.29427 8.42611 5.48763 8.61589 5.73828 8.79492C5.99609 8.9668 6.3112 9.13151 6.68359 9.28906C7.05599 9.44661 7.4821 9.59701 7.96191 9.74023C8.7998 10.0052 9.54102 10.2988 10.1855 10.6211C10.8372 10.9434 11.3851 11.3086 11.8291 11.7168C12.2731 12.125 12.6061 12.5869 12.8281 13.1025C13.0573 13.6182 13.1719 14.2018 13.1719 14.8535C13.1719 15.5482 13.0358 16.1641 12.7637 16.7012C12.4987 17.2383 12.112 17.6966 11.6035 18.0762C11.1022 18.4486 10.5007 18.7314 9.79883 18.9248C9.09701 19.1182 8.31283 19.2148 7.44629 19.2148C6.65853 19.2148 5.88151 19.1146 5.11523 18.9141C4.34896 18.7064 3.6543 18.3913 3.03125 17.9688C2.41536 17.5462 1.92122 17.0091 1.54883 16.3574C1.18359 15.6986 1.00098 14.918 1.00098 14.0156H4.50293C4.50293 14.4883 4.57096 14.8893 4.70703 15.2188C4.8431 15.541 5.03646 15.8024 5.28711 16.0029C5.54492 16.2035 5.85645 16.3467 6.22168 16.4326C6.58691 16.5186 6.99512 16.5615 7.44629 16.5615C7.96908 16.5615 8.3916 16.4899 8.71387 16.3467C9.04329 16.1963 9.28678 15.9922 9.44434 15.7344C9.60189 15.4766 9.68066 15.1901 9.68066 14.875ZM26.5373 3.35938L29.5988 10.3203L32.6818 3.35938H36.4631L31.382 13.3496V19H27.8264V13.3496L22.7346 3.35938H26.5373ZM54.5014 14.875C54.5014 14.61 54.462 14.3737 54.3832 14.166C54.3044 13.9512 54.1612 13.7542 53.9535 13.5752C53.7458 13.3962 53.4522 13.2171 53.0727 13.0381C52.6931 12.8519 52.1954 12.6621 51.5795 12.4688C50.8777 12.2396 50.2081 11.9818 49.5707 11.6953C48.9405 11.4017 48.3783 11.0615 47.8842 10.6748C47.39 10.2881 46.9997 9.83691 46.7133 9.32129C46.434 8.80566 46.2943 8.2041 46.2943 7.5166C46.2943 6.85059 46.4411 6.24902 46.7348 5.71191C47.0284 5.1748 47.4402 4.71647 47.9701 4.33691C48.5001 3.9502 49.1231 3.65658 49.8393 3.45605C50.5554 3.24837 51.3432 3.14453 52.2025 3.14453C53.3484 3.14453 54.3546 3.34863 55.2211 3.75684C56.0948 4.15788 56.7751 4.72363 57.2621 5.4541C57.7491 6.17741 57.9926 7.01888 57.9926 7.97852H54.5121C54.5121 7.55599 54.4226 7.18359 54.2436 6.86133C54.0717 6.5319 53.8067 6.27409 53.4486 6.08789C53.0977 5.90169 52.6573 5.80859 52.1273 5.80859C51.6117 5.80859 51.1784 5.88737 50.8275 6.04492C50.4838 6.19531 50.2224 6.40299 50.0434 6.66797C49.8715 6.93294 49.7855 7.22298 49.7855 7.53809C49.7855 7.78874 49.85 8.0179 49.9789 8.22559C50.115 8.42611 50.3083 8.61589 50.559 8.79492C50.8168 8.9668 51.1319 9.13151 51.5043 9.28906C51.8767 9.44661 52.3028 9.59701 52.7826 9.74023C53.6205 10.0052 54.3617 10.2988 55.0062 10.6211C55.6579 10.9434 56.2058 11.3086 56.6498 11.7168C57.0938 12.125 57.4268 12.5869 57.6488 13.1025C57.878 13.6182 57.9926 14.2018 57.9926 14.8535C57.9926 15.5482 57.8565 16.1641 57.5844 16.7012C57.3194 17.2383 56.9327 17.6966 56.4242 18.0762C55.9229 18.4486 55.3214 18.7314 54.6195 18.9248C53.9177 19.1182 53.1335 19.2148 52.267 19.2148C51.4792 19.2148 50.7022 19.1146 49.9359 18.9141C49.1697 18.7064 48.475 18.3913 47.852 17.9688C47.2361 17.5462 46.7419 17.0091 46.3695 16.3574C46.0043 15.6986 45.8217 14.918 45.8217 14.0156H49.3236C49.3236 14.4883 49.3917 14.8893 49.5277 15.2188C49.6638 15.541 49.8572 15.8024 50.1078 16.0029C50.3656 16.2035 50.6771 16.3467 51.0424 16.4326C51.4076 16.5186 51.8158 16.5615 52.267 16.5615C52.7898 16.5615 53.2123 16.4899 53.5346 16.3467C53.864 16.1963 54.1075 15.9922 54.265 15.7344C54.4226 15.4766 54.5014 15.1901 54.5014 14.875ZM76.1383 3.35938V19H72.6471V3.35938H76.1383ZM80.8971 3.35938V6.07715H67.985V3.35938H80.8971ZM102.061 16.293V19H93.7361V16.293H102.061ZM94.9285 3.35938V19H91.4266V3.35938H94.9285ZM100.987 9.6543V12.2754H93.7361V9.6543H100.987ZM102.072 3.35938V6.07715H93.7361V3.35938H102.072ZM114.256 3.35938H117.156L120.916 14.542L124.665 3.35938H127.565L122.087 19H119.734L114.256 3.35938ZM112.58 3.35938H115.534L116.082 14.9502V19H112.58V3.35938ZM126.287 3.35938H129.252V19H125.739V14.9502L126.287 3.35938ZM159.882 19H156.445L156.466 16.293H159.882C160.663 16.293 161.322 16.1139 161.859 15.7559C162.396 15.3906 162.804 14.8535 163.083 14.1445C163.363 13.4284 163.502 12.5583 163.502 11.5342V10.8145C163.502 10.041 163.424 9.36068 163.266 8.77344C163.108 8.17904 162.876 7.68132 162.568 7.28027C162.26 6.87923 161.877 6.57845 161.418 6.37793C160.967 6.17741 160.448 6.07715 159.861 6.07715H156.38V3.35938H159.861C160.921 3.35938 161.887 3.53841 162.761 3.89648C163.642 4.25456 164.401 4.7666 165.038 5.43262C165.683 6.09863 166.181 6.88639 166.532 7.7959C166.883 8.7054 167.058 9.71875 167.058 10.8359V11.5342C167.058 12.6442 166.883 13.6576 166.532 14.5742C166.181 15.4837 165.683 16.2715 165.038 16.9375C164.401 17.5964 163.646 18.1048 162.772 18.4629C161.898 18.821 160.935 19 159.882 19ZM158.432 3.35938V19H154.93V3.35938H158.432ZM188.63 16.293V19H180.305V16.293H188.63ZM181.498 3.35938V19H177.996V3.35938H181.498ZM187.556 9.6543V12.2754H180.305V9.6543H187.556ZM188.641 3.35938V6.07715H180.305V3.35938H188.641ZM204.929 15.5303L208.409 3.35938H212.308L206.948 19H204.402L204.929 15.5303ZM201.76 3.35938L205.229 15.5303L205.777 19H203.199L197.871 3.35938H201.76ZM233.043 16.293V19H224.718V16.293H233.043ZM225.91 3.35938V19H222.408V3.35938H225.91ZM231.969 9.6543V12.2754H224.718V9.6543H231.969ZM233.054 3.35938V6.07715H224.718V3.35938H233.054ZM253.767 16.293V19H245.871V16.293H253.767ZM247.064 3.35938V19H243.562V3.35938H247.064ZM276.618 10.8359V11.5342C276.618 12.723 276.453 13.79 276.123 14.7354C275.801 15.6807 275.339 16.4863 274.738 17.1523C274.143 17.8184 273.434 18.3304 272.611 18.6885C271.794 19.0394 270.888 19.2148 269.893 19.2148C268.898 19.2148 267.988 19.0394 267.164 18.6885C266.341 18.3304 265.625 17.8184 265.016 17.1523C264.414 16.4863 263.949 15.6807 263.62 14.7354C263.29 13.79 263.125 12.723 263.125 11.5342V10.8359C263.125 9.64714 263.29 8.58008 263.62 7.63477C263.949 6.68229 264.411 5.87305 265.005 5.20703C265.607 4.54102 266.319 4.03255 267.143 3.68164C267.967 3.32357 268.876 3.14453 269.871 3.14453C270.867 3.14453 271.776 3.32357 272.6 3.68164C273.424 4.03255 274.133 4.54102 274.727 5.20703C275.329 5.87305 275.794 6.68229 276.123 7.63477C276.453 8.58008 276.618 9.64714 276.618 10.8359ZM273.083 11.5342V10.8145C273.083 10.0195 273.012 9.31771 272.869 8.70898C272.725 8.0931 272.518 7.57747 272.246 7.16211C271.973 6.74674 271.637 6.43522 271.236 6.22754C270.835 6.0127 270.38 5.90527 269.871 5.90527C269.342 5.90527 268.88 6.0127 268.486 6.22754C268.092 6.43522 267.759 6.74674 267.487 7.16211C267.222 7.57747 267.018 8.0931 266.874 8.70898C266.738 9.31771 266.67 10.0195 266.67 10.8145V11.5342C266.67 12.3219 266.738 13.0238 266.874 13.6396C267.018 14.2484 267.225 14.764 267.497 15.1865C267.77 15.609 268.103 15.9277 268.496 16.1426C268.898 16.3574 269.363 16.4648 269.893 16.4648C270.401 16.4648 270.853 16.3574 271.246 16.1426C271.648 15.9277 271.984 15.609 272.256 15.1865C272.528 14.764 272.732 14.2484 272.869 13.6396C273.012 13.0238 273.083 12.3219 273.083 11.5342ZM293.732 13.5645H289.8V10.8467H293.732C294.312 10.8467 294.778 10.75 295.129 10.5566C295.487 10.3633 295.748 10.0983 295.913 9.76172C296.085 9.41797 296.171 9.03125 296.171 8.60156C296.171 8.15755 296.085 7.74577 295.913 7.36621C295.748 6.97949 295.487 6.66797 295.129 6.43164C294.778 6.19531 294.312 6.07715 293.732 6.07715H291.068V19H287.566V3.35938H293.732C294.978 3.35938 296.045 3.58496 296.933 4.03613C297.828 4.4873 298.512 5.10677 298.985 5.89453C299.465 6.67513 299.705 7.57031 299.705 8.58008C299.705 9.58984 299.465 10.4671 298.985 11.2119C298.512 11.9567 297.828 12.5368 296.933 12.9521C296.045 13.3604 294.978 13.5645 293.732 13.5645ZM321.266 16.293V19H312.941V16.293H321.266ZM314.134 3.35938V19H310.632V3.35938H314.134ZM320.192 9.6543V12.2754H312.941V9.6543H320.192ZM321.277 3.35938V6.07715H312.941V3.35938H321.277ZM331.785 3.35938H337.79C338.986 3.35938 340.021 3.53841 340.895 3.89648C341.775 4.25456 342.452 4.78451 342.925 5.48633C343.397 6.18815 343.634 7.05469 343.634 8.08594C343.634 8.94531 343.494 9.67578 343.215 10.2773C342.936 10.8789 342.542 11.3766 342.033 11.7705C341.532 12.1644 340.945 12.4831 340.271 12.7266L339.133 13.3496H334.02L333.998 10.6318H337.801C338.324 10.6318 338.757 10.5387 339.101 10.3525C339.444 10.1663 339.702 9.90495 339.874 9.56836C340.053 9.22461 340.143 8.82357 340.143 8.36523C340.143 7.89258 340.053 7.48438 339.874 7.14062C339.695 6.79688 339.43 6.53548 339.079 6.35645C338.735 6.17025 338.306 6.07715 337.79 6.07715H335.287V19H331.785V3.35938ZM340.443 19L336.931 12.0498L340.626 12.0391L344.192 18.8389V19H340.443Z" fill="#878787"/>
</svg>
