<svg width="556" height="71" viewBox="0 0 556 71" fill="none" xmlns="http://www.w3.org/2000/svg">
<path d="M156.625 42.9302L147.028 69H144.59L155.064 41.2734H156.759L156.625 42.9302ZM165.347 69L155.73 42.9302L155.597 41.2734H157.292L167.785 69H165.347ZM163.633 59.2119V61.2305H148.913V59.2119H163.633ZM170.937 39.75H173.222V65.001L173.069 69H170.937V39.75ZM187.561 58.5073V58.9072C187.561 60.4434 187.383 61.8525 187.028 63.1348C186.673 64.417 186.158 65.5278 185.485 66.4673C184.813 67.394 183.987 68.1113 183.01 68.6191C182.045 69.127 180.934 69.3809 179.677 69.3809C178.446 69.3809 177.354 69.1904 176.402 68.8096C175.45 68.416 174.637 67.8638 173.964 67.1528C173.292 66.4292 172.752 65.585 172.346 64.6201C171.94 63.6426 171.654 62.5698 171.489 61.4019V56.3174C171.679 55.0732 171.984 53.9434 172.403 52.9277C172.822 51.9121 173.361 51.0361 174.022 50.2998C174.694 49.5635 175.494 48.9985 176.421 48.605C177.36 48.2114 178.433 48.0146 179.639 48.0146C180.896 48.0146 182.013 48.2622 182.991 48.7573C183.981 49.2397 184.813 49.9443 185.485 50.8711C186.158 51.7852 186.673 52.8896 187.028 54.1846C187.383 55.4668 187.561 56.9077 187.561 58.5073ZM185.257 58.9072V58.5073C185.257 57.3013 185.143 56.1841 184.914 55.1558C184.686 54.1274 184.324 53.2324 183.829 52.4707C183.346 51.6963 182.724 51.0933 181.963 50.6616C181.201 50.23 180.287 50.0142 179.22 50.0142C178.129 50.0142 177.195 50.1982 176.421 50.5664C175.659 50.9219 175.025 51.3979 174.517 51.9946C174.022 52.5786 173.628 53.2197 173.336 53.918C173.044 54.6162 172.828 55.3018 172.689 55.9746V61.897C172.904 62.8491 173.279 63.7441 173.812 64.582C174.345 65.4199 175.063 66.0991 175.964 66.6196C176.865 67.1274 177.964 67.3813 179.258 67.3813C180.299 67.3813 181.194 67.1655 181.943 66.7339C182.705 66.3022 183.327 65.7056 183.81 64.9438C184.305 64.1821 184.667 63.2871 184.895 62.2588C185.136 61.2305 185.257 60.1133 185.257 58.9072ZM190.961 59.0215V58.3931C190.961 56.895 191.177 55.5112 191.608 54.2417C192.04 52.9722 192.656 51.874 193.455 50.9473C194.268 50.0205 195.239 49.3032 196.369 48.7954C197.499 48.2749 198.756 48.0146 200.139 48.0146C201.536 48.0146 202.799 48.2749 203.929 48.7954C205.059 49.3032 206.03 50.0205 206.843 50.9473C207.655 51.874 208.277 52.9722 208.709 54.2417C209.14 55.5112 209.356 56.895 209.356 58.3931V59.0215C209.356 60.5195 209.14 61.9033 208.709 63.1729C208.277 64.4297 207.655 65.5215 206.843 66.4482C206.043 67.375 205.078 68.0986 203.948 68.6191C202.818 69.127 201.561 69.3809 200.178 69.3809C198.781 69.3809 197.518 69.127 196.388 68.6191C195.258 68.0986 194.287 67.375 193.474 66.4482C192.662 65.5215 192.04 64.4297 191.608 63.1729C191.177 61.9033 190.961 60.5195 190.961 59.0215ZM193.227 58.3931V59.0215C193.227 60.1514 193.379 61.2241 193.684 62.2397C193.989 63.2427 194.433 64.1377 195.017 64.9248C195.601 65.6992 196.324 66.3086 197.188 66.7529C198.051 67.1973 199.048 67.4194 200.178 67.4194C201.295 67.4194 202.279 67.1973 203.129 66.7529C203.992 66.3086 204.716 65.6992 205.3 64.9248C205.884 64.1377 206.322 63.2427 206.614 62.2397C206.919 61.2241 207.071 60.1514 207.071 59.0215V58.3931C207.071 57.2759 206.919 56.2158 206.614 55.2129C206.322 54.21 205.878 53.3149 205.281 52.5278C204.697 51.7407 203.973 51.1187 203.11 50.6616C202.247 50.2046 201.257 49.9761 200.139 49.9761C199.022 49.9761 198.032 50.2046 197.169 50.6616C196.318 51.1187 195.595 51.7407 194.998 52.5278C194.414 53.3149 193.97 54.21 193.665 55.2129C193.373 56.2158 193.227 57.2759 193.227 58.3931ZM226.886 64.2393V48.3955H229.171V69H226.981L226.886 64.2393ZM227.305 60.4307L228.485 60.3926C228.485 61.6875 228.333 62.8809 228.028 63.9727C227.724 65.0645 227.247 66.0166 226.6 66.8291C225.953 67.6416 225.115 68.27 224.086 68.7144C223.058 69.1587 221.82 69.3809 220.373 69.3809C219.37 69.3809 218.45 69.2412 217.612 68.9619C216.787 68.6699 216.076 68.2129 215.479 67.5908C214.882 66.9688 214.419 66.1626 214.089 65.1724C213.771 64.1821 213.613 62.9824 213.613 61.5732V48.3955H215.879V61.6113C215.879 62.7158 215.999 63.6362 216.241 64.3726C216.495 65.1089 216.837 65.6992 217.269 66.1436C217.713 66.5879 218.221 66.9053 218.792 67.0957C219.364 67.2861 219.979 67.3813 220.64 67.3813C222.315 67.3813 223.636 67.0576 224.601 66.4102C225.578 65.7627 226.27 64.9121 226.676 63.8584C227.095 62.792 227.305 61.6494 227.305 60.4307ZM242.53 48.3955V50.2617H232.209V48.3955H242.53ZM235.998 43.1016H238.264V63.9917C238.264 64.9438 238.391 65.6611 238.645 66.1436C238.899 66.626 239.229 66.9497 239.635 67.1147C240.042 67.2798 240.48 67.3623 240.949 67.3623C241.292 67.3623 241.622 67.3433 241.94 67.3052C242.257 67.2544 242.543 67.2036 242.796 67.1528L242.892 69.0762C242.612 69.165 242.251 69.2349 241.806 69.2856C241.362 69.3491 240.918 69.3809 240.473 69.3809C239.597 69.3809 238.823 69.2222 238.15 68.9048C237.477 68.5747 236.95 68.0161 236.569 67.229C236.189 66.4292 235.998 65.3438 235.998 63.9727V43.1016Z" fill="#B93C9D"/>
<path d="M13.3418 0.617188H26.3936L43.3125 50.939L60.1831 0.617188H73.2349L48.5815 71H37.9951L13.3418 0.617188ZM5.80078 0.617188H19.0942L21.5596 52.7759V71H5.80078V0.617188ZM67.4824 0.617188H80.8242V71H65.0171V52.7759L67.4824 0.617188ZM136.419 58.8184V71H98.9555V58.8184H136.419ZM104.321 0.617188V71H88.5625V0.617188H104.321ZM131.585 28.9443V40.7393H98.9555V28.9443H131.585ZM136.467 0.617188V12.8472H98.9555V0.617188H136.467Z" fill="#B93C9D"/>
</svg>
