<svg width="556" height="71" viewBox="0 0 556 71" fill="none" xmlns="http://www.w3.org/2000/svg">
<path d="M164.757 67.0005V69H149.161V67.0005H164.757ZM149.865 41.2734V69H147.523V41.2734H149.865ZM162.814 53.7085V55.708H149.161V53.7085H162.814ZM164.662 41.2734V43.292H149.161V41.2734H164.662ZM169.946 41.2734L177.754 52.9849L185.581 41.2734H188.361L179.182 54.9272L188.647 69H185.847L177.754 56.9077L169.661 69H166.881L176.345 54.9272L167.166 41.2734H169.946ZM202.253 57.7075H194.35V55.708H202.253C203.904 55.708 205.243 55.4414 206.271 54.9082C207.312 54.3623 208.068 53.626 208.537 52.6992C209.02 51.7725 209.261 50.7314 209.261 49.5762C209.261 48.4463 209.02 47.4053 208.537 46.4531C208.068 45.501 207.312 44.7393 206.271 44.168C205.243 43.584 203.904 43.292 202.253 43.292H195.169V69H192.827V41.2734H202.253C204.284 41.2734 205.992 41.6226 207.376 42.3208C208.772 43.019 209.826 43.9902 210.537 45.2344C211.248 46.4785 211.603 47.9131 211.603 49.5381C211.603 51.2393 211.248 52.7056 210.537 53.937C209.826 55.1558 208.779 56.0889 207.395 56.7363C206.011 57.3838 204.297 57.7075 202.253 57.7075ZM219.326 41.2734V69H216.983V41.2734H219.326ZM226.419 41.2734H235.427C237.344 41.2734 239.007 41.5845 240.416 42.2065C241.825 42.8286 242.911 43.749 243.672 44.9678C244.447 46.1738 244.834 47.6592 244.834 49.4238C244.834 50.7314 244.555 51.9185 243.996 52.9849C243.45 54.0513 242.695 54.9463 241.73 55.6699C240.765 56.3809 239.648 56.8696 238.378 57.1362L237.56 57.4409H227.943L227.905 55.4414H235.96C237.407 55.4414 238.613 55.1621 239.578 54.6035C240.543 54.0449 241.267 53.3086 241.749 52.3945C242.244 51.4678 242.492 50.4775 242.492 49.4238C242.492 48.167 242.219 47.0815 241.673 46.1675C241.14 45.2407 240.346 44.5298 239.293 44.0347C238.239 43.5396 236.95 43.292 235.427 43.292H228.762V69H226.419V41.2734ZM243.539 69L236.36 56.603L238.874 56.584L246.034 68.7524V69H243.539ZM253.737 41.2734V69H251.395V41.2734H253.737ZM278.122 67.0005V69H262.526V67.0005H278.122ZM263.23 41.2734V69H260.888V41.2734H263.23ZM276.18 53.7085V55.708H262.526V53.7085H276.18ZM278.027 41.2734V43.292H262.526V41.2734H278.027ZM303.345 41.2734V69H300.983L285.044 45.3105V69H282.702V41.2734H285.044L301.021 64.9629V41.2734H303.345ZM327.311 60.3545H329.653C329.463 62.2207 328.948 63.833 328.11 65.1914C327.273 66.5371 326.13 67.5718 324.683 68.2954C323.235 69.019 321.49 69.3809 319.446 69.3809C317.872 69.3809 316.443 69.0825 315.161 68.4858C313.892 67.8892 312.8 67.0449 311.886 65.9531C310.972 64.8486 310.267 63.5283 309.772 61.9922C309.277 60.4561 309.029 58.7485 309.029 56.8696V53.4038C309.029 51.5249 309.277 49.8237 309.772 48.3003C310.267 46.7642 310.978 45.4438 311.905 44.3394C312.832 43.2349 313.943 42.3843 315.237 41.7876C316.532 41.1909 317.992 40.8926 319.617 40.8926C321.585 40.8926 323.286 41.2544 324.721 41.978C326.155 42.689 327.285 43.7173 328.11 45.063C328.948 46.4087 329.463 48.0337 329.653 49.938H327.311C327.133 48.4399 326.739 47.1704 326.13 46.1294C325.521 45.0884 324.676 44.2949 323.597 43.749C322.531 43.1904 321.204 42.9111 319.617 42.9111C318.322 42.9111 317.167 43.1587 316.151 43.6538C315.136 44.1489 314.273 44.8599 313.562 45.7866C312.851 46.7007 312.305 47.7988 311.924 49.0811C311.556 50.3633 311.372 51.7915 311.372 53.3657V56.8696C311.372 58.3931 311.549 59.7959 311.905 61.0781C312.26 62.3604 312.781 63.4712 313.466 64.4106C314.165 65.3501 315.015 66.0801 316.018 66.6006C317.021 67.1211 318.164 67.3813 319.446 67.3813C321.084 67.3813 322.448 67.1211 323.54 66.6006C324.645 66.0674 325.502 65.2803 326.111 64.2393C326.72 63.1982 327.12 61.9033 327.311 60.3545ZM352.21 67.0005V69H336.614V67.0005H352.21ZM337.318 41.2734V69H334.976V41.2734H337.318ZM350.267 53.7085V55.708H336.614V53.7085H350.267ZM352.115 41.2734V43.292H336.614V41.2734H352.115ZM372.481 62.1826C372.481 61.4209 372.354 60.7417 372.1 60.145C371.847 59.5483 371.428 59.0151 370.844 58.5454C370.272 58.063 369.498 57.6187 368.52 57.2124C367.556 56.7935 366.35 56.3809 364.902 55.9746C363.518 55.5811 362.268 55.1494 361.151 54.6797C360.034 54.21 359.075 53.6704 358.275 53.061C357.488 52.4517 356.885 51.7407 356.466 50.9282C356.047 50.103 355.838 49.1445 355.838 48.0527C355.838 46.9863 356.066 46.0151 356.523 45.1392C356.98 44.2632 357.621 43.5078 358.447 42.873C359.285 42.2383 360.268 41.7495 361.398 41.4067C362.541 41.064 363.791 40.8926 365.15 40.8926C367.092 40.8926 368.768 41.2607 370.177 41.9971C371.599 42.7334 372.697 43.73 373.472 44.9868C374.259 46.231 374.652 47.6274 374.652 49.1763H372.31C372.31 47.9702 372.024 46.8975 371.453 45.958C370.894 45.0059 370.082 44.2632 369.016 43.73C367.962 43.1841 366.673 42.9111 365.15 42.9111C363.626 42.9111 362.344 43.146 361.303 43.6157C360.275 44.0728 359.494 44.6885 358.961 45.4629C358.44 46.2246 358.18 47.0752 358.18 48.0146C358.18 48.6748 358.307 49.2842 358.561 49.8428C358.815 50.3887 359.227 50.9028 359.799 51.3853C360.383 51.855 361.151 52.2993 362.103 52.7183C363.055 53.1245 364.229 53.5117 365.626 53.8799C367.099 54.2861 368.406 54.7368 369.549 55.2319C370.691 55.7271 371.656 56.2983 372.443 56.9458C373.23 57.5806 373.827 58.3232 374.233 59.1738C374.64 60.0244 374.843 61.0146 374.843 62.1445C374.843 63.2744 374.601 64.29 374.119 65.1914C373.649 66.0801 372.983 66.8354 372.12 67.4575C371.269 68.0796 370.26 68.5557 369.092 68.8857C367.936 69.2158 366.673 69.3809 365.302 69.3809C364.071 69.3809 362.846 69.2222 361.627 68.9048C360.408 68.5874 359.291 68.0986 358.275 67.4385C357.272 66.7656 356.466 65.9023 355.857 64.8486C355.26 63.7949 354.962 62.5381 354.962 61.0781H357.285C357.285 62.2461 357.52 63.23 357.99 64.0298C358.459 64.8296 359.081 65.4771 359.856 65.9722C360.643 66.4673 361.506 66.8291 362.446 67.0576C363.398 67.2734 364.35 67.3813 365.302 67.3813C366.762 67.3813 368.025 67.1655 369.092 66.7339C370.171 66.3022 371.002 65.6992 371.586 64.9248C372.183 64.1377 372.481 63.2236 372.481 62.1826Z" fill="#B93C9D"/>
<path d="M13.3418 0.617188H26.3936L43.3125 50.939L60.1831 0.617188H73.2349L48.5815 71H37.9951L13.3418 0.617188ZM5.80078 0.617188H19.0942L21.5596 52.7759V71H5.80078V0.617188ZM67.4824 0.617188H80.8242V71H65.0171V52.7759L67.4824 0.617188ZM98.4721 0.617188L112.249 31.9414L126.123 0.617188H143.138L120.273 45.5732V71H104.273V45.5732L81.3598 0.617188H98.4721Z" fill="#B93C9D"/>
</svg>
