<svg width="556" height="71" viewBox="0 0 556 71" fill="none" xmlns="http://www.w3.org/2000/svg">
<path d="M166.166 53.7085V55.708H149.313V53.7085H166.166ZM149.865 41.2734V69H147.523V41.2734H149.865ZM168.051 41.2734V69H165.709V41.2734H168.051ZM195.216 53.6514V56.6221C195.216 58.5645 194.963 60.3228 194.455 61.897C193.96 63.4585 193.236 64.7979 192.284 65.915C191.344 67.0322 190.214 67.8892 188.894 68.4858C187.574 69.0825 186.089 69.3809 184.438 69.3809C182.826 69.3809 181.353 69.0825 180.02 68.4858C178.7 67.8892 177.564 67.0322 176.611 65.915C175.659 64.7979 174.923 63.4585 174.402 61.897C173.882 60.3228 173.622 58.5645 173.622 56.6221V53.6514C173.622 51.709 173.876 49.957 174.383 48.3955C174.904 46.8213 175.64 45.4756 176.592 44.3584C177.545 43.2412 178.681 42.3843 180.001 41.7876C181.321 41.1909 182.788 40.8926 184.4 40.8926C186.05 40.8926 187.536 41.1909 188.856 41.7876C190.176 42.3843 191.313 43.2412 192.265 44.3584C193.217 45.4756 193.947 46.8213 194.455 48.3955C194.963 49.957 195.216 51.709 195.216 53.6514ZM192.893 56.6221V53.6133C192.893 51.9756 192.703 50.5029 192.322 49.1953C191.954 47.8877 191.402 46.7705 190.665 45.8438C189.942 44.917 189.053 44.2061 187.999 43.7109C186.945 43.2158 185.746 42.9683 184.4 42.9683C183.092 42.9683 181.918 43.2158 180.877 43.7109C179.836 44.2061 178.947 44.917 178.211 45.8438C177.487 46.7705 176.929 47.8877 176.535 49.1953C176.154 50.5029 175.964 51.9756 175.964 53.6133V56.6221C175.964 58.2725 176.154 59.7578 176.535 61.0781C176.929 62.3857 177.494 63.5093 178.23 64.4487C178.966 65.3755 179.855 66.0864 180.896 66.5815C181.95 67.0767 183.131 67.3242 184.438 67.3242C185.797 67.3242 186.996 67.0767 188.037 66.5815C189.078 66.0864 189.961 65.3755 190.684 64.4487C191.408 63.5093 191.954 62.3857 192.322 61.0781C192.703 59.7578 192.893 58.2725 192.893 56.6221ZM210.289 55.6699H202.482L202.444 53.6895H209.166C210.537 53.6895 211.705 53.4927 212.67 53.0991C213.635 52.7056 214.365 52.1216 214.86 51.3472C215.367 50.5601 215.621 49.5952 215.621 48.4526C215.621 47.2847 215.374 46.3198 214.879 45.5581C214.384 44.7837 213.641 44.2124 212.651 43.8442C211.66 43.4761 210.416 43.292 208.918 43.292H203.091V69H200.749V41.2734H208.918C210.327 41.2734 211.591 41.4131 212.708 41.6924C213.825 41.9717 214.777 42.4097 215.564 43.0063C216.351 43.603 216.948 44.3584 217.354 45.2725C217.773 46.1738 217.983 47.2529 217.983 48.5098C217.983 49.6523 217.729 50.687 217.221 51.6138C216.713 52.5278 215.996 53.2769 215.069 53.8608C214.155 54.4321 213.057 54.7876 211.775 54.9272L210.289 55.6699ZM210.118 69H201.739L202.939 67.0005H210.118C211.489 67.0005 212.657 66.772 213.622 66.3149C214.599 65.8452 215.348 65.1787 215.869 64.3154C216.389 63.4521 216.65 62.4238 216.65 61.2305C216.65 60.1768 216.421 59.231 215.964 58.3931C215.507 57.5552 214.809 56.895 213.869 56.4126C212.93 55.9175 211.737 55.6699 210.289 55.6699H205.433L205.471 53.6895H212.346L212.765 54.394C214.009 54.521 215.095 54.9082 216.021 55.5557C216.961 56.1904 217.684 56.9966 218.192 57.9741C218.713 58.9517 218.973 60.0244 218.973 61.1924C218.973 62.8682 218.598 64.29 217.849 65.458C217.113 66.6133 216.078 67.4956 214.745 68.105C213.425 68.7017 211.883 69 210.118 69ZM233.817 55.6699H226.01L225.972 53.6895H232.694C234.065 53.6895 235.233 53.4927 236.198 53.0991C237.163 52.7056 237.893 52.1216 238.388 51.3472C238.895 50.5601 239.149 49.5952 239.149 48.4526C239.149 47.2847 238.902 46.3198 238.407 45.5581C237.912 44.7837 237.169 44.2124 236.179 43.8442C235.188 43.4761 233.944 43.292 232.446 43.292H226.619V69H224.277V41.2734H232.446C233.855 41.2734 235.119 41.4131 236.236 41.6924C237.353 41.9717 238.305 42.4097 239.092 43.0063C239.879 43.603 240.476 44.3584 240.882 45.2725C241.301 46.1738 241.511 47.2529 241.511 48.5098C241.511 49.6523 241.257 50.687 240.749 51.6138C240.241 52.5278 239.524 53.2769 238.597 53.8608C237.683 54.4321 236.585 54.7876 235.303 54.9272L233.817 55.6699ZM233.646 69H225.267L226.467 67.0005H233.646C235.017 67.0005 236.185 66.772 237.15 66.3149C238.127 65.8452 238.876 65.1787 239.397 64.3154C239.917 63.4521 240.178 62.4238 240.178 61.2305C240.178 60.1768 239.949 59.231 239.492 58.3931C239.035 57.5552 238.337 56.895 237.397 56.4126C236.458 55.9175 235.265 55.6699 233.817 55.6699H228.961L228.999 53.6895H235.874L236.293 54.394C237.537 54.521 238.622 54.9082 239.549 55.5557C240.489 56.1904 241.212 56.9966 241.72 57.9741C242.241 58.9517 242.501 60.0244 242.501 61.1924C242.501 62.8682 242.126 64.29 241.377 65.458C240.641 66.6133 239.606 67.4956 238.273 68.105C236.953 68.7017 235.411 69 233.646 69ZM250.661 41.2734V69H248.319V41.2734H250.661ZM275.046 67.0005V69H259.45V67.0005H275.046ZM260.154 41.2734V69H257.812V41.2734H260.154ZM273.104 53.7085V55.708H259.45V53.7085H273.104ZM274.951 41.2734V43.292H259.45V41.2734H274.951ZM295.318 62.1826C295.318 61.4209 295.191 60.7417 294.937 60.145C294.683 59.5483 294.264 59.0151 293.68 58.5454C293.109 58.063 292.334 57.6187 291.357 57.2124C290.392 56.7935 289.186 56.3809 287.739 55.9746C286.355 55.5811 285.104 55.1494 283.987 54.6797C282.87 54.21 281.911 53.6704 281.112 53.061C280.325 52.4517 279.722 51.7407 279.303 50.9282C278.884 50.103 278.674 49.1445 278.674 48.0527C278.674 46.9863 278.903 46.0151 279.36 45.1392C279.817 44.2632 280.458 43.5078 281.283 42.873C282.121 42.2383 283.105 41.7495 284.235 41.4067C285.377 41.064 286.628 40.8926 287.986 40.8926C289.929 40.8926 291.604 41.2607 293.014 41.9971C294.435 42.7334 295.534 43.73 296.308 44.9868C297.095 46.231 297.489 47.6274 297.489 49.1763H295.146C295.146 47.9702 294.861 46.8975 294.289 45.958C293.731 45.0059 292.918 44.2632 291.852 43.73C290.798 43.1841 289.51 42.9111 287.986 42.9111C286.463 42.9111 285.181 43.146 284.139 43.6157C283.111 44.0728 282.33 44.6885 281.797 45.4629C281.277 46.2246 281.016 47.0752 281.016 48.0146C281.016 48.6748 281.143 49.2842 281.397 49.8428C281.651 50.3887 282.064 50.9028 282.635 51.3853C283.219 51.855 283.987 52.2993 284.939 52.7183C285.891 53.1245 287.066 53.5117 288.462 53.8799C289.935 54.2861 291.243 54.7368 292.385 55.2319C293.528 55.7271 294.493 56.2983 295.28 56.9458C296.067 57.5806 296.663 58.3232 297.07 59.1738C297.476 60.0244 297.679 61.0146 297.679 62.1445C297.679 63.2744 297.438 64.29 296.955 65.1914C296.486 66.0801 295.819 66.8354 294.956 67.4575C294.105 68.0796 293.096 68.5557 291.928 68.8857C290.773 69.2158 289.51 69.3809 288.139 69.3809C286.907 69.3809 285.682 69.2222 284.463 68.9048C283.244 68.5874 282.127 68.0986 281.112 67.4385C280.109 66.7656 279.303 65.9023 278.693 64.8486C278.097 63.7949 277.798 62.5381 277.798 61.0781H280.121C280.121 62.2461 280.356 63.23 280.826 64.0298C281.296 64.8296 281.918 65.4771 282.692 65.9722C283.479 66.4673 284.343 66.8291 285.282 67.0576C286.234 67.2734 287.186 67.3813 288.139 67.3813C289.598 67.3813 290.862 67.1655 291.928 66.7339C293.007 66.3022 293.839 65.6992 294.423 64.9248C295.019 64.1377 295.318 63.2236 295.318 62.1826Z" fill="#B93C9D"/>
<path d="M13.3418 0.617188H26.3936L43.3125 50.939L60.1831 0.617188H73.2349L48.5815 71H37.9951L13.3418 0.617188ZM5.80078 0.617188H19.0942L21.5596 52.7759V71H5.80078V0.617188ZM67.4824 0.617188H80.8242V71H65.0171V52.7759L67.4824 0.617188ZM98.4721 0.617188L112.249 31.9414L126.123 0.617188H143.138L120.273 45.5732V71H104.273V45.5732L81.3598 0.617188H98.4721Z" fill="#B93C9D"/>
</svg>
