<svg width="556" height="71" viewBox="0 0 556 71" fill="none" xmlns="http://www.w3.org/2000/svg">
<path d="M156.816 41.2734V69H154.493V41.2734H156.816ZM166.318 41.2734V43.292H145.009V41.2734H166.318ZM170.384 41.2734H179.392C181.309 41.2734 182.972 41.5845 184.381 42.2065C185.79 42.8286 186.876 43.749 187.637 44.9678C188.412 46.1738 188.799 47.6592 188.799 49.4238C188.799 50.7314 188.52 51.9185 187.961 52.9849C187.415 54.0513 186.66 54.9463 185.695 55.6699C184.73 56.3809 183.613 56.8696 182.343 57.1362L181.525 57.4409H171.908L171.87 55.4414H179.925C181.372 55.4414 182.578 55.1621 183.543 54.6035C184.508 54.0449 185.232 53.3086 185.714 52.3945C186.209 51.4678 186.457 50.4775 186.457 49.4238C186.457 48.167 186.184 47.0815 185.638 46.1675C185.105 45.2407 184.311 44.5298 183.257 44.0347C182.204 43.5396 180.915 43.292 179.392 43.292H172.727V69H170.384V41.2734ZM187.504 69L180.325 56.603L182.839 56.584L189.999 68.7524V69H187.504ZM203.948 42.9302L194.35 69H191.913L202.387 41.2734H204.081L203.948 42.9302ZM212.67 69L203.053 42.9302L202.92 41.2734H204.615L215.107 69H212.67ZM210.956 59.2119V61.2305H196.236V59.2119H210.956ZM221.687 41.2734V69H219.345V41.2734H221.687ZM249.481 41.2734V69H247.119L231.18 45.3105V69H228.838V41.2734H231.18L247.157 64.9629V41.2734H249.481ZM259.031 41.2734V69H256.689V41.2734H259.031ZM286.825 41.2734V69H284.463L268.524 45.3105V69H266.182V41.2734H268.524L284.501 64.9629V41.2734H286.825ZM313.514 55.8223V65.6865C313.196 66.1562 312.65 66.6768 311.876 67.248C311.102 67.8193 310.061 68.3208 308.753 68.7524C307.445 69.1714 305.82 69.3809 303.878 69.3809C302.253 69.3809 300.761 69.0889 299.403 68.5049C298.044 67.9209 296.864 67.0767 295.861 65.9722C294.871 64.855 294.103 63.5156 293.557 61.9541C293.023 60.3926 292.757 58.6406 292.757 56.6982V53.3467C292.757 51.4424 293.004 49.7285 293.499 48.2051C293.995 46.6689 294.712 45.355 295.651 44.2632C296.591 43.1714 297.721 42.3398 299.041 41.7686C300.374 41.1846 301.866 40.8926 303.516 40.8926C305.573 40.8926 307.306 41.248 308.715 41.959C310.124 42.6699 311.222 43.6475 312.009 44.8916C312.809 46.123 313.304 47.5195 313.495 49.0811H311.152C310.975 47.9766 310.606 46.9609 310.048 46.0342C309.489 45.0947 308.677 44.3394 307.61 43.7681C306.557 43.1968 305.192 42.9111 303.516 42.9111C302.17 42.9111 300.971 43.1587 299.917 43.6538C298.876 44.1489 298 44.8535 297.289 45.7676C296.578 46.6816 296.039 47.7798 295.67 49.062C295.302 50.3315 295.118 51.7471 295.118 53.3086V56.6982C295.118 58.3232 295.321 59.7896 295.728 61.0972C296.146 62.4048 296.743 63.5283 297.518 64.4678C298.292 65.4072 299.219 66.1309 300.298 66.6387C301.377 67.1338 302.577 67.3813 303.897 67.3813C305.306 67.3813 306.506 67.248 307.496 66.9814C308.486 66.7148 309.28 66.3975 309.876 66.0293C310.486 65.6484 310.924 65.293 311.19 64.9629V57.8218H303.745V55.8223H313.514ZM335.518 62.1826C335.518 61.4209 335.391 60.7417 335.137 60.145C334.883 59.5483 334.464 59.0151 333.88 58.5454C333.309 58.063 332.535 57.6187 331.557 57.2124C330.592 56.7935 329.386 56.3809 327.939 55.9746C326.555 55.5811 325.305 55.1494 324.188 54.6797C323.07 54.21 322.112 53.6704 321.312 53.061C320.525 52.4517 319.922 51.7407 319.503 50.9282C319.084 50.103 318.875 49.1445 318.875 48.0527C318.875 46.9863 319.103 46.0151 319.56 45.1392C320.017 44.2632 320.658 43.5078 321.484 42.873C322.321 42.2383 323.305 41.7495 324.435 41.4067C325.578 41.064 326.828 40.8926 328.187 40.8926C330.129 40.8926 331.805 41.2607 333.214 41.9971C334.636 42.7334 335.734 43.73 336.508 44.9868C337.296 46.231 337.689 47.6274 337.689 49.1763H335.347C335.347 47.9702 335.061 46.8975 334.49 45.958C333.931 45.0059 333.119 44.2632 332.052 43.73C330.999 43.1841 329.71 42.9111 328.187 42.9111C326.663 42.9111 325.381 43.146 324.34 43.6157C323.312 44.0728 322.531 44.6885 321.998 45.4629C321.477 46.2246 321.217 47.0752 321.217 48.0146C321.217 48.6748 321.344 49.2842 321.598 49.8428C321.852 50.3887 322.264 50.9028 322.836 51.3853C323.42 51.855 324.188 52.2993 325.14 52.7183C326.092 53.1245 327.266 53.5117 328.663 53.8799C330.135 54.2861 331.443 54.7368 332.586 55.2319C333.728 55.7271 334.693 56.2983 335.48 56.9458C336.267 57.5806 336.864 58.3232 337.27 59.1738C337.676 60.0244 337.88 61.0146 337.88 62.1445C337.88 63.2744 337.638 64.29 337.156 65.1914C336.686 66.0801 336.02 66.8354 335.156 67.4575C334.306 68.0796 333.297 68.5557 332.129 68.8857C330.973 69.2158 329.71 69.3809 328.339 69.3809C327.108 69.3809 325.882 69.2222 324.664 68.9048C323.445 68.5874 322.328 68.0986 321.312 67.4385C320.309 66.7656 319.503 65.9023 318.894 64.8486C318.297 63.7949 317.999 62.5381 317.999 61.0781H320.322C320.322 62.2461 320.557 63.23 321.026 64.0298C321.496 64.8296 322.118 65.4771 322.893 65.9722C323.68 66.4673 324.543 66.8291 325.483 67.0576C326.435 67.2734 327.387 67.3813 328.339 67.3813C329.799 67.3813 331.062 67.1655 332.129 66.7339C333.208 66.3022 334.039 65.6992 334.623 64.9248C335.22 64.1377 335.518 63.2236 335.518 62.1826Z" fill="#B93C9D"/>
<path d="M13.3418 0.617188H26.3936L43.3125 50.939L60.1831 0.617188H73.2349L48.5815 71H37.9951L13.3418 0.617188ZM5.80078 0.617188H19.0942L21.5596 52.7759V71H5.80078V0.617188ZM67.4824 0.617188H80.8242V71H65.0171V52.7759L67.4824 0.617188ZM98.4721 0.617188L112.249 31.9414L126.123 0.617188H143.138L120.273 45.5732V71H104.273V45.5732L81.3598 0.617188H98.4721Z" fill="#B93C9D"/>
</svg>
