<svg width="51" height="51" viewBox="0 0 51 51" fill="none" xmlns="http://www.w3.org/2000/svg">
<path d="M50.997 38.0213V48.0392C50.9974 48.7566 50.7255 49.4471 50.2367 49.972C49.7476 50.4968 49.0778 50.8164 48.3622 50.8666C47.1242 50.9516 46.1128 50.997 45.3308 50.997C20.294 50.997 0 30.7031 0 5.66632C0 4.88437 0.0424972 3.87293 0.13034 2.63485C0.180529 1.91932 0.500281 1.24947 1.02504 0.760451C1.5498 0.271433 2.24055 -0.000339316 2.95783 6.63864e-07H12.9759C13.3273 -0.000339316 13.6664 0.129915 13.9271 0.365522C14.1878 0.601128 14.3517 0.925256 14.3868 1.27493C14.452 1.92654 14.5115 2.44501 14.5681 2.83884C15.1312 6.76824 16.285 10.5899 17.9906 14.1743C18.2598 14.741 18.0841 15.4181 17.5741 15.7807L11.4602 20.1495C15.1984 28.8599 22.1399 35.8016 30.8504 39.5397L35.2134 33.437C35.3919 33.1877 35.652 33.0089 35.9487 32.9318C36.2453 32.8546 36.5598 32.884 36.8369 33.0149C40.4207 34.7171 44.2416 35.8683 48.1697 36.4289C48.5632 36.4854 49.0817 36.5479 49.7276 36.6103C50.077 36.646 50.4004 36.8101 50.6354 37.071C50.8704 37.3315 50.9974 37.6702 50.997 38.0213Z" fill="#E744C2" fill-opacity="0.52"/>
</svg>
