<svg width="45" height="52" viewBox="0 0 45 52" fill="none" xmlns="http://www.w3.org/2000/svg">
<path d="M3.21429 46.6072C3.21429 47.8859 3.72226 49.1122 4.62645 50.0164C5.53064 50.9206 6.75699 51.4286 8.03571 51.4286H36.9643C38.243 51.4286 39.4694 50.9206 40.3736 50.0164C41.2777 49.1122 41.7857 47.8859 41.7857 46.6072V12.8572H3.21429V46.6072ZM30.5357 20.8929C30.5357 20.4666 30.705 20.0578 31.0064 19.7565C31.3078 19.4551 31.7166 19.2857 32.1429 19.2857C32.5691 19.2857 32.9779 19.4551 33.2793 19.7565C33.5807 20.0578 33.75 20.4666 33.75 20.8929V43.3929C33.75 43.8191 33.5807 44.2279 33.2793 44.5293C32.9779 44.8307 32.5691 45 32.1429 45C31.7166 45 31.3078 44.8307 31.0064 44.5293C30.705 44.2279 30.5357 43.8191 30.5357 43.3929V20.8929ZM20.8929 20.8929C20.8929 20.4666 21.0622 20.0578 21.3636 19.7565C21.665 19.4551 22.0738 19.2857 22.5 19.2857C22.9262 19.2857 23.335 19.4551 23.6364 19.7565C23.9378 20.0578 24.1071 20.4666 24.1071 20.8929V43.3929C24.1071 43.8191 23.9378 44.2279 23.6364 44.5293C23.335 44.8307 22.9262 45 22.5 45C22.0738 45 21.665 44.8307 21.3636 44.5293C21.0622 44.2279 20.8929 43.8191 20.8929 43.3929V20.8929ZM11.25 20.8929C11.25 20.4666 11.4193 20.0578 11.7207 19.7565C12.0221 19.4551 12.4309 19.2857 12.8571 19.2857C13.2834 19.2857 13.6922 19.4551 13.9936 19.7565C14.295 20.0578 14.4643 20.4666 14.4643 20.8929V43.3929C14.4643 43.8191 14.295 44.2279 13.9936 44.5293C13.6922 44.8307 13.2834 45 12.8571 45C12.4309 45 12.0221 44.8307 11.7207 44.5293C11.4193 44.2279 11.25 43.8191 11.25 43.3929V20.8929ZM43.3929 3.2143H31.3393L30.3951 1.33596C30.1951 0.934384 29.887 0.596592 29.5055 0.360579C29.1239 0.124565 28.6841 -0.000304148 28.2355 1.7611e-05H16.7545C16.3069 -0.00170309 15.8678 0.122701 15.4876 0.358977C15.1075 0.595252 14.8015 0.933842 14.6049 1.33596L13.6607 3.2143H1.60714C1.1809 3.2143 0.772119 3.38363 0.470721 3.68502C0.169324 3.98642 0 4.39521 0 4.82145L0 8.03573C0 8.46197 0.169324 8.87075 0.470721 9.17215C0.772119 9.47355 1.1809 9.64287 1.60714 9.64287H43.3929C43.8191 9.64287 44.2279 9.47355 44.5293 9.17215C44.8307 8.87075 45 8.46197 45 8.03573V4.82145C45 4.39521 44.8307 3.98642 44.5293 3.68502C44.2279 3.38363 43.8191 3.2143 43.3929 3.2143Z" fill="black"/>
</svg>
