<svg width="174" height="71" viewBox="0 0 174 71" fill="none" xmlns="http://www.w3.org/2000/svg">
<rect x="1" y="1" width="142.756" height="69" fill="white" stroke="#878787" stroke-width="2"/>
<path d="M35.1724 17.7578H37.0704V23.8643C37.0704 24.5752 36.918 25.174 36.6133 25.6606C36.3129 26.1473 35.896 26.5133 35.3628 26.7588C34.8339 27.0042 34.2245 27.127 33.5347 27.127C32.8449 27.127 32.2313 27.0042 31.6939 26.7588C31.1607 26.5133 30.7417 26.1473 30.4371 25.6606C30.1366 25.174 29.9864 24.5752 29.9864 23.8643V17.7578H31.8907V23.8643C31.8907 24.279 31.9563 24.6175 32.0874 24.8799C32.2186 25.1423 32.4069 25.3348 32.6524 25.4575C32.9021 25.5802 33.1962 25.6416 33.5347 25.6416C33.8817 25.6416 34.1758 25.5802 34.417 25.4575C34.6625 25.3348 34.8487 25.1423 34.9756 24.8799C35.1068 24.6175 35.1724 24.279 35.1724 23.8643V17.7578ZM43.6674 23.7056H41.3124V22.2202H43.6674C44.0313 22.2202 44.3275 22.161 44.556 22.0425C44.7845 21.9198 44.9517 21.7505 45.0575 21.5347C45.1633 21.3188 45.2162 21.0755 45.2162 20.8047C45.2162 20.5296 45.1633 20.2736 45.0575 20.0366C44.9517 19.7996 44.7845 19.6092 44.556 19.4653C44.3275 19.3215 44.0313 19.2495 43.6674 19.2495H41.9725V27H40.0682V17.7578H43.6674C44.391 17.7578 45.0109 17.889 45.5272 18.1514C46.0477 18.4095 46.4455 18.7671 46.7206 19.2241C46.9956 19.6812 47.1332 20.2038 47.1332 20.792C47.1332 21.3887 46.9956 21.9049 46.7206 22.3408C46.4455 22.7767 46.0477 23.1131 45.5272 23.3501C45.0109 23.5871 44.391 23.7056 43.6674 23.7056ZM52.7145 27H50.7023L50.715 25.5146H52.7145C53.2139 25.5146 53.6349 25.4025 53.9777 25.1782C54.3205 24.9497 54.5786 24.6175 54.7521 24.1816C54.9299 23.7458 55.0187 23.2189 55.0187 22.6011V22.1504C55.0187 21.6764 54.968 21.2596 54.8664 20.8999C54.7691 20.5402 54.6231 20.2376 54.4284 19.9922C54.2337 19.7467 53.9946 19.5627 53.7111 19.4399C53.4276 19.313 53.1017 19.2495 52.7336 19.2495H50.6642V17.7578H52.7336C53.3514 17.7578 53.9164 17.8636 54.4284 18.0752C54.9447 18.2826 55.3911 18.5809 55.7678 18.9702C56.1444 19.3595 56.4343 19.825 56.6374 20.3667C56.8447 20.9041 56.9484 21.5029 56.9484 22.1631V22.6011C56.9484 23.257 56.8447 23.8558 56.6374 24.3975C56.4343 24.9391 56.1444 25.4046 55.7678 25.7939C55.3954 26.179 54.9489 26.4774 54.4284 26.689C53.9121 26.8963 53.3408 27 52.7145 27ZM51.7814 17.7578V27H49.8771V17.7578H51.7814ZM63.3804 19.3384L60.8667 27H58.8418L62.2759 17.7578H63.5645L63.3804 19.3384ZM65.4688 27L62.9487 19.3384L62.7456 17.7578H64.0469L67.5 27H65.4688ZM65.3545 23.5596V25.0513H60.4732V23.5596H65.3545ZM73.1322 17.7578V27H71.2342V17.7578H73.1322ZM75.9759 17.7578V19.2495H68.4349V17.7578H75.9759ZM84.693 25.5146V27H79.7736V25.5146H84.693ZM80.3957 17.7578V27H78.4914V17.7578H80.3957ZM84.0519 21.522V22.9692H79.7736V21.522H84.0519ZM84.6867 17.7578V19.2495H79.7736V17.7578H84.6867Z" fill="#878787"/>
<path d="M38.0415 38.3486V54H34.6792V42.1729L31.0484 43.2793V40.6797L37.7085 38.3486H38.0415ZM56.0699 44.7832V47.5654C56.0699 48.7113 55.941 49.7031 55.6832 50.541C55.4326 51.3789 55.0673 52.07 54.5875 52.6143C54.1149 53.1585 53.5491 53.5632 52.8903 53.8281C52.2386 54.0859 51.5153 54.2148 50.7203 54.2148C50.083 54.2148 49.4886 54.1325 48.9371 53.9678C48.3857 53.8031 47.888 53.5488 47.444 53.2051C47.0071 52.8542 46.6311 52.4173 46.316 51.8945C46.0009 51.3717 45.7574 50.7487 45.5856 50.0254C45.4209 49.3021 45.3385 48.4821 45.3385 47.5654V44.7832C45.3385 43.623 45.4638 42.6276 45.7145 41.7969C45.9723 40.9661 46.3411 40.2786 46.8209 39.7344C47.3007 39.1901 47.8665 38.7891 48.5182 38.5312C49.177 38.2734 49.9039 38.1445 50.6989 38.1445C51.3362 38.1445 51.927 38.2269 52.4713 38.3916C53.0227 38.5563 53.5205 38.8105 53.9645 39.1543C54.4085 39.498 54.7845 39.9313 55.0924 40.4541C55.4075 40.9769 55.6474 41.5999 55.8121 42.3232C55.984 43.0394 56.0699 43.8594 56.0699 44.7832ZM52.7184 47.9844V44.3428C52.7184 43.8057 52.6862 43.3402 52.6217 42.9463C52.5644 42.5452 52.4785 42.2051 52.3639 41.9258C52.2565 41.6465 52.1204 41.4209 51.9557 41.249C51.791 41.0771 51.6012 40.9518 51.3864 40.873C51.1787 40.7871 50.9495 40.7441 50.6989 40.7441C50.3838 40.7441 50.1009 40.8086 49.8502 40.9375C49.5996 41.0664 49.3883 41.2705 49.2164 41.5498C49.0446 41.8219 48.9121 42.1908 48.819 42.6562C48.733 43.1146 48.6901 43.6768 48.6901 44.3428V47.9844C48.6901 48.5215 48.7187 48.9906 48.776 49.3916C48.8405 49.7926 48.9264 50.1364 49.0338 50.4229C49.1484 50.7021 49.288 50.9313 49.4528 51.1104C49.6175 51.2822 49.8073 51.4076 50.0221 51.4863C50.2369 51.5651 50.4697 51.6045 50.7203 51.6045C51.0354 51.6045 51.3147 51.5436 51.5582 51.4219C51.8017 51.293 52.0094 51.0889 52.1813 50.8096C52.3603 50.5231 52.4928 50.1471 52.5787 49.6816C52.6718 49.2161 52.7184 48.6504 52.7184 47.9844ZM67.2233 38.3594L61.6911 55.3428H59.2526L64.7849 38.3594H67.2233ZM81.6746 51.3896V54H70.868V51.7871L75.9168 46.4375C76.3894 45.8932 76.7654 45.4134 77.0447 44.998C77.3312 44.5827 77.5389 44.2067 77.6678 43.8701C77.7967 43.5264 77.8611 43.2113 77.8611 42.9248C77.8611 42.4593 77.7859 42.0654 77.6355 41.7432C77.4923 41.4209 77.281 41.1738 77.0017 41.002C76.7225 40.8301 76.3823 40.7441 75.9812 40.7441C75.5516 40.7441 75.1827 40.8551 74.8748 41.0771C74.5669 41.2992 74.3305 41.6071 74.1658 42.001C74.0011 42.3877 73.9187 42.8281 73.9187 43.3223H70.5457C70.5457 42.3698 70.7749 41.5033 71.2332 40.7227C71.6915 39.9349 72.3325 39.3083 73.156 38.8428C73.9796 38.3701 74.9428 38.1338 76.0457 38.1338C77.1772 38.1338 78.1261 38.3128 78.8924 38.6709C79.6586 39.029 80.2387 39.541 80.6326 40.207C81.0265 40.873 81.2234 41.6751 81.2234 42.6133C81.2234 43.1432 81.1375 43.6553 80.9656 44.1494C80.8009 44.6436 80.561 45.1341 80.2459 45.6211C79.9308 46.1081 79.5512 46.6058 79.1072 47.1143C78.6632 47.6156 78.1619 48.1455 77.6033 48.7041L75.24 51.3896H81.6746ZM96.6737 44.7832V47.5654C96.6737 48.7113 96.5448 49.7031 96.287 50.541C96.0363 51.3789 95.6711 52.07 95.1913 52.6143C94.7186 53.1585 94.1529 53.5632 93.494 53.8281C92.8423 54.0859 92.119 54.2148 91.3241 54.2148C90.6867 54.2148 90.0923 54.1325 89.5409 53.9678C88.9895 53.8031 88.4917 53.5488 88.0477 53.2051C87.6109 52.8542 87.2349 52.4173 86.9198 51.8945C86.6047 51.3717 86.3612 50.7487 86.1893 50.0254C86.0246 49.3021 85.9423 48.4821 85.9423 47.5654V44.7832C85.9423 43.623 86.0676 42.6276 86.3182 41.7969C86.576 40.9661 86.9449 40.2786 87.4247 39.7344C87.9045 39.1901 88.4702 38.7891 89.1219 38.5312C89.7808 38.2734 90.5077 38.1445 91.3026 38.1445C91.94 38.1445 92.5308 38.2269 93.0751 38.3916C93.6265 38.5563 94.1242 38.8105 94.5682 39.1543C95.0122 39.498 95.3882 39.9313 95.6962 40.4541C96.0113 40.9769 96.2512 41.5999 96.4159 42.3232C96.5878 43.0394 96.6737 43.8594 96.6737 44.7832ZM93.3221 47.9844V44.3428C93.3221 43.8057 93.2899 43.3402 93.2255 42.9463C93.1682 42.5452 93.0822 42.2051 92.9676 41.9258C92.8602 41.6465 92.7242 41.4209 92.5594 41.249C92.3947 41.0771 92.2049 40.9518 91.9901 40.873C91.7824 40.7871 91.5533 40.7441 91.3026 40.7441C90.9875 40.7441 90.7046 40.8086 90.454 40.9375C90.2033 41.0664 89.9921 41.2705 89.8202 41.5498C89.6483 41.8219 89.5158 42.1908 89.4227 42.6562C89.3368 43.1146 89.2938 43.6768 89.2938 44.3428V47.9844C89.2938 48.5215 89.3225 48.9906 89.3798 49.3916C89.4442 49.7926 89.5301 50.1364 89.6376 50.4229C89.7521 50.7021 89.8918 50.9313 90.0565 51.1104C90.2212 51.2822 90.411 51.4076 90.6258 51.4863C90.8407 51.5651 91.0734 51.6045 91.3241 51.6045C91.6392 51.6045 91.9185 51.5436 92.162 51.4219C92.4055 51.293 92.6132 51.0889 92.785 50.8096C92.9641 50.5231 93.0965 50.1471 93.1825 49.6816C93.2756 49.2161 93.3221 48.6504 93.3221 47.9844ZM111.909 51.3896V54H101.102V51.7871L106.151 46.4375C106.624 45.8932 107 45.4134 107.279 44.998C107.566 44.5827 107.773 44.2067 107.902 43.8701C108.031 43.5264 108.096 43.2113 108.096 42.9248C108.096 42.4593 108.02 42.0654 107.87 41.7432C107.727 41.4209 107.516 41.1738 107.236 41.002C106.957 40.8301 106.617 40.7441 106.216 40.7441C105.786 40.7441 105.417 40.8551 105.109 41.0771C104.801 41.2992 104.565 41.6071 104.4 42.001C104.236 42.3877 104.153 42.8281 104.153 43.3223H100.78C100.78 42.3698 101.009 41.5033 101.468 40.7227C101.926 39.9349 102.567 39.3083 103.391 38.8428C104.214 38.3701 105.177 38.1338 106.28 38.1338C107.412 38.1338 108.361 38.3128 109.127 38.6709C109.893 39.029 110.473 39.541 110.867 40.207C111.261 40.873 111.458 41.6751 111.458 42.6133C111.458 43.1432 111.372 43.6553 111.2 44.1494C111.035 44.6436 110.796 45.1341 110.48 45.6211C110.165 46.1081 109.786 46.6058 109.342 47.1143C108.898 47.6156 108.396 48.1455 107.838 48.7041L105.475 51.3896H111.909ZM119.453 44.751H121.161C121.648 44.751 122.049 44.665 122.364 44.4932C122.687 44.3213 122.923 44.0778 123.073 43.7627C123.231 43.4476 123.31 43.0788 123.31 42.6562C123.31 42.291 123.238 41.9652 123.095 41.6787C122.952 41.3923 122.733 41.1667 122.439 41.002C122.153 40.8301 121.781 40.7441 121.322 40.7441C120.993 40.7441 120.678 40.8122 120.377 40.9482C120.083 41.0771 119.843 41.2669 119.657 41.5176C119.471 41.7611 119.378 42.0547 119.378 42.3984H116.016C116.016 41.5247 116.252 40.7692 116.725 40.1318C117.204 39.4945 117.838 39.0039 118.626 38.6602C119.421 38.3092 120.287 38.1338 121.226 38.1338C122.307 38.1338 123.256 38.3057 124.072 38.6494C124.896 38.986 125.533 39.4873 125.984 40.1533C126.443 40.8122 126.672 41.6286 126.672 42.6025C126.672 43.111 126.55 43.6016 126.307 44.0742C126.07 44.5397 125.73 44.9551 125.286 45.3203C124.849 45.6784 124.327 45.9648 123.718 46.1797C123.116 46.3874 122.447 46.4912 121.709 46.4912H119.453V44.751ZM119.453 47.2754V45.5674H121.709C122.525 45.5674 123.256 45.6605 123.9 45.8467C124.545 46.0329 125.093 46.3014 125.544 46.6523C125.995 47.0033 126.339 47.4294 126.575 47.9307C126.812 48.432 126.93 48.9906 126.93 49.6064C126.93 50.3369 126.786 50.9886 126.5 51.5615C126.214 52.1344 125.813 52.6178 125.297 53.0117C124.781 53.4056 124.176 53.7064 123.481 53.9141C122.787 54.1146 122.035 54.2148 121.226 54.2148C120.574 54.2148 119.926 54.1253 119.281 53.9463C118.637 53.7673 118.053 53.4951 117.53 53.1299C117.008 52.7575 116.589 52.2884 116.273 51.7227C115.958 51.1497 115.801 50.4694 115.801 49.6816H119.163C119.163 50.0469 119.256 50.3763 119.442 50.6699C119.636 50.9564 119.897 51.1855 120.227 51.3574C120.563 51.5221 120.928 51.6045 121.322 51.6045C121.795 51.6045 122.196 51.5186 122.525 51.3467C122.862 51.1676 123.116 50.9242 123.288 50.6162C123.467 50.3083 123.557 49.9538 123.557 49.5527C123.557 49.0085 123.46 48.5716 123.267 48.2422C123.08 47.9056 122.808 47.6621 122.45 47.5117C122.092 47.3542 121.662 47.2754 121.161 47.2754H119.453Z" fill="#878787"/>
</svg>
