<svg width="118" height="116" viewBox="0 0 118 116" fill="none" xmlns="http://www.w3.org/2000/svg">
<g filter="url(#filter0_d_41_485)">
<path d="M103.967 40.8571H75.1666C72.4052 40.8571 70.1666 38.6186 70.1666 35.8571V7.42857C70.1666 3.32661 66.8031 0 62.6555 0H55.1444C50.9969 0 47.6333 3.32661 47.6333 7.42857V35.8571C47.6333 38.6186 45.3947 40.8571 42.6333 40.8571H13.8333C9.68577 40.8571 6.3222 44.1838 6.3222 48.2857V55.7143C6.3222 59.8162 9.68577 63.1429 13.8333 63.1429H42.6333C45.3947 63.1429 47.6333 65.3814 47.6333 68.1429V96.5714C47.6333 100.673 50.9969 104 55.1444 104H62.6555C66.8031 104 70.1666 100.673 70.1666 96.5714V68.1429C70.1666 65.3814 72.4052 63.1429 75.1666 63.1429H103.967C108.114 63.1429 111.478 59.8162 111.478 55.7143V48.2857C111.478 44.1838 108.114 40.8571 103.967 40.8571Z" fill="#0876A6"/>
</g>
<defs>
<filter id="filter0_d_41_485" x="0.322205" y="0" width="117.156" height="116" filterUnits="userSpaceOnUse" color-interpolation-filters="sRGB">
<feFlood flood-opacity="0" result="BackgroundImageFix"/>
<feColorMatrix in="SourceAlpha" type="matrix" values="0 0 0 0 0 0 0 0 0 0 0 0 0 0 0 0 0 0 127 0" result="hardAlpha"/>
<feOffset dy="6"/>
<feGaussianBlur stdDeviation="3"/>
<feComposite in2="hardAlpha" operator="out"/>
<feColorMatrix type="matrix" values="0 0 0 0 0 0 0 0 0 0 0 0 0 0 0 0 0 0 0.25 0"/>
<feBlend mode="normal" in2="BackgroundImageFix" result="effect1_dropShadow_41_485"/>
<feBlend mode="normal" in="SourceGraphic" in2="effect1_dropShadow_41_485" result="shape"/>
</filter>
</defs>
</svg>
