<svg width="23" height="23" viewBox="0 0 23 23" fill="none" xmlns="http://www.w3.org/2000/svg">
<path d="M20.9091 7.31706C21.4637 7.31706 21.9954 7.53734 22.3876 7.92946C22.7797 8.32159 23 8.85342 23 9.40796V13.5898C23 14.1443 22.7797 14.6762 22.3876 15.0682C21.9954 15.4604 21.4637 15.6806 20.9091 15.6806H19.7989C19.5439 17.7019 18.5602 19.5606 17.0323 20.908C15.5043 22.2554 13.5372 22.9989 11.5 22.9989V20.908C13.1636 20.908 14.7591 20.247 15.9355 19.0707C17.1118 17.8944 17.7728 16.2988 17.7728 14.6352V8.3625C17.7728 6.69888 17.1118 5.10338 15.9355 3.92703C14.7591 2.75066 13.1636 2.08978 11.5 2.08978C9.83636 2.08978 8.24088 2.75066 7.0645 3.92703C5.88815 5.10338 5.22727 6.69888 5.22727 8.3625V15.6806H2.09091C1.53637 15.6806 1.00454 15.4604 0.612412 15.0682C0.220292 14.6762 0 14.1443 0 13.5898V9.40796C0 8.85342 0.220292 8.32159 0.612412 7.92946C1.00454 7.53734 1.53637 7.31706 2.09091 7.31706H3.20118C3.45631 5.29608 4.44012 3.43766 5.96805 2.09048C7.49597 0.743321 9.46298 0 11.5 0C13.537 0 15.5039 0.743321 17.032 2.09048C18.5599 3.43766 19.5437 5.29608 19.7989 7.31706H20.9091ZM7.06726 15.4559L8.17545 13.6828C9.17184 14.307 10.3242 14.6372 11.5 14.6352C12.6758 14.6372 13.8281 14.307 14.8246 13.6828L15.9327 15.4559C14.6042 16.2883 13.0677 16.7285 11.5 16.7261C9.9323 16.7285 8.39577 16.2883 7.06726 15.4559Z" fill="#F0AA8D"/>
</svg>
