<svg width="32" height="31" viewBox="0 0 32 31" fill="none" xmlns="http://www.w3.org/2000/svg">
<path fill-rule="evenodd" clip-rule="evenodd" d="M4.87928 6.63576L0.309795 2.06773L2.37754 0L31.3099 28.9336L29.2421 31L24.4053 26.163C21.835 27.7934 18.8533 28.6566 15.8098 28.6518C7.93047 28.6518 1.37509 22.9818 0 15.5C0.628402 12.0962 2.339 8.98685 4.87928 6.63576ZM19.8386 21.5965L17.6992 19.4571C16.0223 20.2594 14.0217 19.9171 12.7072 18.6025C11.3927 17.288 11.0502 15.2874 11.8526 13.6105L9.71321 11.4711C7.79626 14.3678 8.18369 18.2137 10.6398 20.6698C13.096 23.1261 16.9419 23.5134 19.8386 21.5965ZM15.8098 2.34837C13.7348 2.34837 11.7489 2.74292 9.92664 3.45894L14.7387 8.26955C17.0275 7.92978 19.3419 8.69422 20.9782 10.3304C22.6142 11.9665 23.3786 14.281 23.0388 16.5697L28.6796 22.2103C30.1655 20.2312 31.1718 17.9342 31.6197 15.5001C30.2446 8.0182 23.6892 2.34837 15.8098 2.34837Z" fill="#E36E3D"/>
</svg>
