<svg width="32" height="27" viewBox="0 0 32 27" fill="none" xmlns="http://www.w3.org/2000/svg">
<path fill-rule="evenodd" clip-rule="evenodd" d="M0 13.3099C1.39014 5.73806 8.02586 0 16 0C23.9741 0 30.6084 5.73806 32 13.3099C30.6098 20.8817 23.9741 26.6198 16 26.6198C8.02586 26.6198 1.39163 20.8817 0 13.3099ZM16 20.7042C20.0838 20.7042 23.3945 17.3937 23.3945 13.3099C23.3945 9.22609 20.0838 5.91552 16 5.91552C11.9162 5.91552 8.60562 9.22609 8.60562 13.3099C8.60562 17.3937 11.9162 20.7042 16 20.7042ZM11.5634 13.3099C11.5634 15.7602 13.5497 17.7465 16 17.7465C18.4503 17.7465 20.4366 15.7602 20.4366 13.3099C20.4366 10.8596 18.4503 8.87327 16 8.87327C13.5497 8.87327 11.5634 10.8596 11.5634 13.3099Z" fill="#E36E3D"/>
</svg>
