<svg width="21" height="22" viewBox="0 0 21 22" fill="none" xmlns="http://www.w3.org/2000/svg">
<path d="M4.37851 16.8026C4.59545 16.1879 4.99774 15.6553 5.52995 15.2789C6.06216 14.9023 6.69807 14.7001 7.35003 14.7001C8.00199 14.7001 8.63789 14.9023 9.1701 15.2789C9.70231 15.6553 10.1046 16.1879 10.3215 16.8026H21V18.9027H10.3215C10.1046 19.5174 9.70231 20.0498 9.1701 20.4264C8.63789 20.8029 8.00199 21.0052 7.35003 21.0052C6.69807 21.0052 6.06216 20.8029 5.52995 20.4264C4.99774 20.0498 4.59545 19.5174 4.37851 18.9027H0V16.8026H4.37851ZM10.6785 9.4526C10.8955 8.83778 11.2978 8.3054 11.83 7.92883C12.3622 7.55224 12.9981 7.35001 13.65 7.35001C14.302 7.35001 14.938 7.55224 15.4702 7.92883C16.0023 8.3054 16.4046 8.83778 16.6215 9.4526H21V11.5526H16.6215C16.4046 12.1674 16.0023 12.6998 15.4702 13.0764C14.938 13.453 14.302 13.6552 13.65 13.6552C12.9981 13.6552 12.3622 13.453 11.83 13.0764C11.2978 12.6998 10.8955 12.1674 10.6785 11.5526H0V9.4526H10.6785ZM4.37851 2.10257C4.59545 1.48777 4.99774 0.955382 5.52995 0.578799C6.06216 0.202215 6.69807 0 7.35003 0C8.00199 0 8.63789 0.202215 9.1701 0.578799C9.70231 0.955382 10.1046 1.48777 10.3215 2.10257H21V4.20259H10.3215C10.1046 4.81739 9.70231 5.34977 9.1701 5.72636C8.63789 6.10294 8.00199 6.30515 7.35003 6.30515C6.69807 6.30515 6.06216 6.10294 5.52995 5.72636C4.99774 5.34977 4.59545 4.81739 4.37851 4.20259H0V2.10257H4.37851ZM7.35003 4.20259C7.62851 4.20259 7.89558 4.09196 8.09249 3.89503C8.28941 3.69813 8.40004 3.43105 8.40004 3.15258C8.40004 2.8741 8.28941 2.60703 8.09249 2.41012C7.89558 2.2132 7.62851 2.10257 7.35003 2.10257C7.07155 2.10257 6.80448 2.2132 6.60757 2.41012C6.41065 2.60703 6.30002 2.8741 6.30002 3.15258C6.30002 3.43105 6.41065 3.69813 6.60757 3.89503C6.80448 4.09196 7.07155 4.20259 7.35003 4.20259ZM13.65 11.5526C13.9285 11.5526 14.1957 11.442 14.3925 11.2451C14.5894 11.0482 14.7 10.7811 14.7 10.5026C14.7 10.2241 14.5894 9.95706 14.3925 9.76013C14.1957 9.56323 13.9285 9.4526 13.65 9.4526C13.3716 9.4526 13.1045 9.56323 12.9076 9.76013C12.7107 9.95706 12.6 10.2241 12.6 10.5026C12.6 10.7811 12.7107 11.0482 12.9076 11.2451C13.1045 11.442 13.3716 11.5526 13.65 11.5526ZM7.35003 18.9027C7.62851 18.9027 7.89558 18.792 8.09249 18.5951C8.28941 18.3982 8.40004 18.1311 8.40004 17.8526C8.40004 17.5742 8.28941 17.3071 8.09249 17.1102C7.89558 16.9133 7.62851 16.8026 7.35003 16.8026C7.07155 16.8026 6.80448 16.9133 6.60757 17.1102C6.41065 17.3071 6.30002 17.5742 6.30002 17.8526C6.30002 18.1311 6.41065 18.3982 6.60757 18.5951C6.80448 18.792 7.07155 18.9027 7.35003 18.9027Z" fill="#FFC5AC"/>
</svg>
