<svg width="379" height="139" viewBox="0 0 379 139" fill="none" xmlns="http://www.w3.org/2000/svg">
<g filter="url(#filter0_d_45_181)">
<path d="M18.0733 43.7932C18.0733 21.0705 33.4132 0 54.4187 0C68.9956 0 79.812 9.45356 86.4885 22.8644C93.1646 9.45436 103.981 0 118.558 0C139.566 0 154.904 21.0741 154.904 43.7932C154.904 92.4274 86.4885 127 86.4885 127C86.4885 127 40.4036 105.121 23.8809 69.2325H64.6955L71.1828 57.8596L78.7604 84.0153L96.5057 61.5156H118.684V53.5781H92.569L82.1434 66.7972L73.6232 37.3904L59.9885 61.295H20.8092C21.6623 64.0112 22.6957 66.6579 23.8809 69.2325L6 69.2321V61.2946L20.8092 61.295C19.065 55.7423 18.0733 49.8995 18.0733 43.7932Z" fill="white"/>
</g>
<path d="M189.955 48H179.202V18.9091H189.94C192.904 18.9091 195.456 19.4915 197.597 20.6562C199.746 21.8116 201.403 23.4782 202.568 25.6562C203.733 27.8248 204.315 30.4195 204.315 33.4403C204.315 36.4706 203.733 39.0748 202.568 41.2528C201.413 43.4309 199.76 45.1023 197.611 46.267C195.461 47.4223 192.909 48 189.955 48ZM186.233 42.0057H189.685C191.313 42.0057 192.691 41.7311 193.818 41.1818C194.955 40.6231 195.812 39.7188 196.389 38.4688C196.976 37.2093 197.27 35.5331 197.27 33.4403C197.27 31.3475 196.976 29.6809 196.389 28.4403C195.802 27.1903 194.936 26.2907 193.79 25.7415C192.653 25.1828 191.252 24.9034 189.585 24.9034H186.233V42.0057ZM227.005 48.4119C224.713 48.4119 222.744 47.9432 221.096 47.0057C219.458 46.0587 218.194 44.7424 217.303 43.0568C216.423 41.3617 215.982 39.3968 215.982 37.1619C215.982 34.9176 216.423 32.9527 217.303 31.267C218.194 29.572 219.458 28.2557 221.096 27.3182C222.744 26.3712 224.713 25.8977 227.005 25.8977C229.297 25.8977 231.262 26.3712 232.9 27.3182C234.548 28.2557 235.812 29.572 236.693 31.267C237.583 32.9527 238.028 34.9176 238.028 37.1619C238.028 39.3968 237.583 41.3617 236.693 43.0568C235.812 44.7424 234.548 46.0587 232.9 47.0057C231.262 47.9432 229.297 48.4119 227.005 48.4119ZM227.048 43.1705C227.881 43.1705 228.587 42.9148 229.164 42.4034C229.742 41.892 230.182 41.1818 230.485 40.2727C230.798 39.3636 230.954 38.3125 230.954 37.1193C230.954 35.9072 230.798 34.8466 230.485 33.9375C230.182 33.0284 229.742 32.3182 229.164 31.8068C228.587 31.2955 227.881 31.0398 227.048 31.0398C226.186 31.0398 225.457 31.2955 224.86 31.8068C224.273 32.3182 223.823 33.0284 223.511 33.9375C223.208 34.8466 223.056 35.9072 223.056 37.1193C223.056 38.3125 223.208 39.3636 223.511 40.2727C223.823 41.1818 224.273 41.892 224.86 42.4034C225.457 42.9148 226.186 43.1705 227.048 43.1705ZM260.171 48.4119C257.87 48.4119 255.895 47.9384 254.247 46.9915C252.609 46.0445 251.35 44.7282 250.469 43.0426C249.588 41.3475 249.148 39.3873 249.148 37.1619C249.148 34.9271 249.588 32.9669 250.469 31.2812C251.359 29.5862 252.623 28.2652 254.262 27.3182C255.909 26.3712 257.874 25.8977 260.157 25.8977C262.174 25.8977 263.93 26.2623 265.426 26.9915C266.932 27.7206 268.106 28.7528 268.949 30.0881C269.801 31.4138 270.251 32.9716 270.299 34.7614H263.807C263.675 33.6439 263.296 32.768 262.671 32.1335C262.055 31.4991 261.25 31.1818 260.256 31.1818C259.451 31.1818 258.746 31.4091 258.139 31.8636C257.533 32.3087 257.06 32.9716 256.719 33.8523C256.388 34.7235 256.222 35.803 256.222 37.0909C256.222 38.3788 256.388 39.4678 256.719 40.358C257.06 41.2386 257.533 41.9062 258.139 42.3608C258.746 42.8059 259.451 43.0284 260.256 43.0284C260.9 43.0284 261.468 42.8911 261.961 42.6165C262.462 42.3419 262.874 41.9394 263.196 41.4091C263.518 40.8693 263.722 40.2159 263.807 39.4489H270.299C270.232 41.2481 269.782 42.8201 268.949 44.1648C268.125 45.5095 266.965 46.5559 265.469 47.304C263.982 48.0426 262.216 48.4119 260.171 48.4119ZM294.569 26.1818V31.2955H280.804V26.1818H294.569ZM283.688 20.9545H290.634V41.1392C290.634 41.5653 290.7 41.911 290.833 42.1761C290.975 42.4318 291.178 42.6165 291.444 42.7301C291.709 42.8343 292.026 42.8864 292.395 42.8864C292.66 42.8864 292.94 42.8627 293.233 42.8153C293.536 42.7585 293.764 42.7112 293.915 42.6733L294.966 47.6875C294.635 47.7822 294.166 47.9006 293.56 48.0426C292.963 48.1847 292.249 48.2746 291.415 48.3125C289.786 48.3883 288.39 48.1989 287.225 47.7443C286.07 47.2803 285.184 46.5606 284.569 45.5852C283.963 44.6098 283.669 43.3835 283.688 41.9062V20.9545ZM316.463 48.4119C314.171 48.4119 312.202 47.9432 310.554 47.0057C308.916 46.0587 307.651 44.7424 306.761 43.0568C305.881 41.3617 305.44 39.3968 305.44 37.1619C305.44 34.9176 305.881 32.9527 306.761 31.267C307.651 29.572 308.916 28.2557 310.554 27.3182C312.202 26.3712 314.171 25.8977 316.463 25.8977C318.755 25.8977 320.72 26.3712 322.358 27.3182C324.006 28.2557 325.27 29.572 326.15 31.267C327.041 32.9527 327.486 34.9176 327.486 37.1619C327.486 39.3968 327.041 41.3617 326.15 43.0568C325.27 44.7424 324.006 46.0587 322.358 47.0057C320.72 47.9432 318.755 48.4119 316.463 48.4119ZM316.506 43.1705C317.339 43.1705 318.044 42.9148 318.622 42.4034C319.2 41.892 319.64 41.1818 319.943 40.2727C320.256 39.3636 320.412 38.3125 320.412 37.1193C320.412 35.9072 320.256 34.8466 319.943 33.9375C319.64 33.0284 319.2 32.3182 318.622 31.8068C318.044 31.2955 317.339 31.0398 316.506 31.0398C315.644 31.0398 314.915 31.2955 314.318 31.8068C313.731 32.3182 313.281 33.0284 312.969 33.9375C312.666 34.8466 312.514 35.9072 312.514 37.1193C312.514 38.3125 312.666 39.3636 312.969 40.2727C313.281 41.1818 313.731 41.892 314.318 42.4034C314.915 42.9148 315.644 43.1705 316.506 43.1705ZM339.444 48V26.1818H346.191V30.1591H346.418C346.816 28.7197 347.465 27.6496 348.364 26.9489C349.264 26.2386 350.31 25.8835 351.504 25.8835C351.826 25.8835 352.157 25.9072 352.498 25.9545C352.839 25.9924 353.156 26.054 353.45 26.1392V32.1761C353.118 32.0625 352.683 31.9725 352.143 31.9062C351.612 31.84 351.139 31.8068 350.722 31.8068C349.898 31.8068 349.155 31.9915 348.492 32.3608C347.839 32.7206 347.323 33.2273 346.944 33.8807C346.575 34.5246 346.39 35.2822 346.39 36.1534V48H339.444ZM179.202 95V65.9091H186.233V77.5852H197.696V65.9091H204.713V95H197.696V83.3097H186.233V95H179.202ZM227.722 95.4119C225.44 95.4119 223.471 94.9621 221.813 94.0625C220.166 93.1534 218.897 91.8608 218.007 90.1847C217.126 88.4991 216.686 86.4962 216.686 84.1761C216.686 81.9223 217.131 79.9527 218.021 78.267C218.911 76.572 220.166 75.2557 221.785 74.3182C223.404 73.3712 225.312 72.8977 227.509 72.8977C229.062 72.8977 230.483 73.1392 231.771 73.6222C233.059 74.1051 234.171 74.8201 235.109 75.767C236.046 76.714 236.775 77.8835 237.296 79.2756C237.817 80.6581 238.078 82.2443 238.078 84.0341V85.767H219.114V81.733H231.614C231.605 80.9943 231.43 80.3362 231.089 79.7585C230.748 79.1809 230.279 78.7311 229.683 78.4091C229.096 78.0777 228.418 77.9119 227.651 77.9119C226.875 77.9119 226.179 78.0871 225.563 78.4375C224.948 78.7784 224.46 79.2472 224.1 79.8438C223.74 80.4309 223.551 81.0985 223.532 81.8466V85.9517C223.532 86.8419 223.707 87.6231 224.058 88.2955C224.408 88.9583 224.905 89.4744 225.549 89.8438C226.193 90.2131 226.96 90.3977 227.85 90.3977C228.466 90.3977 229.025 90.3125 229.526 90.142C230.028 89.9716 230.459 89.7206 230.819 89.3892C231.179 89.0578 231.449 88.6506 231.629 88.1676L238.007 88.3523C237.741 89.7822 237.159 91.0275 236.259 92.0881C235.369 93.1392 234.2 93.9583 232.751 94.5455C231.302 95.1231 229.626 95.4119 227.722 95.4119ZM256.176 95.3693C254.784 95.3693 253.548 95.1373 252.468 94.6733C251.398 94.1998 250.551 93.4896 249.926 92.5426C249.31 91.5862 249.002 90.3883 249.002 88.9489C249.002 87.7367 249.215 86.714 249.642 85.8807C250.068 85.0473 250.655 84.3703 251.403 83.8494C252.151 83.3286 253.013 82.9356 253.988 82.6705C254.964 82.3958 256.005 82.2112 257.113 82.1165C258.354 82.0028 259.353 81.8845 260.11 81.7614C260.868 81.6288 261.417 81.4441 261.758 81.2074C262.108 80.9612 262.284 80.6155 262.284 80.1705V80.0994C262.284 79.3703 262.033 78.8068 261.531 78.4091C261.029 78.0114 260.352 77.8125 259.5 77.8125C258.581 77.8125 257.842 78.0114 257.284 78.4091C256.725 78.8068 256.37 79.3561 256.218 80.0568L249.812 79.8295C250.001 78.5038 250.489 77.3201 251.275 76.2784C252.071 75.2273 253.16 74.4034 254.542 73.8068C255.934 73.2008 257.606 72.8977 259.556 72.8977C260.948 72.8977 262.232 73.0634 263.406 73.3949C264.58 73.7169 265.603 74.1903 266.474 74.8153C267.345 75.4309 268.018 76.1884 268.491 77.0881C268.974 77.9877 269.215 79.0152 269.215 80.1705V95H262.681V91.9602H262.511C262.123 92.6989 261.626 93.3239 261.019 93.8352C260.423 94.3466 259.717 94.7301 258.903 94.9858C258.098 95.2415 257.189 95.3693 256.176 95.3693ZM258.321 90.8239C259.069 90.8239 259.741 90.6723 260.338 90.3693C260.944 90.0663 261.427 89.6496 261.787 89.1193C262.146 88.5795 262.326 87.9545 262.326 87.2443V85.1705C262.127 85.2746 261.886 85.3693 261.602 85.4545C261.327 85.5398 261.024 85.6203 260.693 85.696C260.361 85.7718 260.02 85.8381 259.67 85.8949C259.32 85.9517 258.983 86.0038 258.662 86.0511C258.008 86.1553 257.449 86.3163 256.985 86.5341C256.531 86.7519 256.18 87.036 255.934 87.3864C255.697 87.7273 255.579 88.1345 255.579 88.608C255.579 89.3277 255.835 89.8769 256.346 90.2557C256.867 90.6345 257.525 90.8239 258.321 90.8239ZM288.809 65.9091V95H281.863V65.9091H288.809ZM313.945 73.1818V78.2955H300.181V73.1818H313.945ZM303.064 67.9545H310.011V88.1392C310.011 88.5653 310.077 88.911 310.209 89.1761C310.351 89.4318 310.555 89.6165 310.82 89.7301C311.085 89.8343 311.403 89.8864 311.772 89.8864C312.037 89.8864 312.316 89.8627 312.61 89.8153C312.913 89.7585 313.14 89.7112 313.292 89.6733L314.343 94.6875C314.011 94.7822 313.543 94.9006 312.937 95.0426C312.34 95.1847 311.625 95.2746 310.792 95.3125C309.163 95.3883 307.766 95.1989 306.601 94.7443C305.446 94.2803 304.561 93.5606 303.945 92.5852C303.339 91.6098 303.046 90.3835 303.064 88.9062V67.9545ZM333.304 82.5568V95H326.358V65.9091H333.077V77.1875H333.318C333.811 75.8428 334.616 74.7917 335.733 74.0341C336.86 73.2765 338.238 72.8977 339.866 72.8977C341.401 72.8977 342.736 73.2386 343.872 73.9205C345.009 74.5928 345.889 75.5445 346.514 76.7756C347.149 78.0066 347.461 79.446 347.452 81.0938V95H340.506V82.4574C340.515 81.2453 340.212 80.2983 339.597 79.6165C338.981 78.9347 338.115 78.5938 336.997 78.5938C336.268 78.5938 335.624 78.7547 335.065 79.0767C334.516 79.3892 334.085 79.839 333.773 80.4261C333.47 81.0133 333.313 81.7235 333.304 82.5568Z" fill="white"/>
<defs>
<filter id="filter0_d_45_181" x="0" y="0" width="160.904" height="139" filterUnits="userSpaceOnUse" color-interpolation-filters="sRGB">
<feFlood flood-opacity="0" result="BackgroundImageFix"/>
<feColorMatrix in="SourceAlpha" type="matrix" values="0 0 0 0 0 0 0 0 0 0 0 0 0 0 0 0 0 0 127 0" result="hardAlpha"/>
<feOffset dy="6"/>
<feGaussianBlur stdDeviation="3"/>
<feComposite in2="hardAlpha" operator="out"/>
<feColorMatrix type="matrix" values="0 0 0 0 0 0 0 0 0 0 0 0 0 0 0 0 0 0 0.25 0"/>
<feBlend mode="normal" in2="BackgroundImageFix" result="effect1_dropShadow_45_181"/>
<feBlend mode="normal" in="SourceGraphic" in2="effect1_dropShadow_45_181" result="shape"/>
</filter>
</defs>
</svg>
