<svg width="61" height="60" viewBox="0 0 61 60" fill="none" xmlns="http://www.w3.org/2000/svg">
<g filter="url(#filter0_d_45_147)">
<path d="M23.2401 48H18.1601C12.5488 48 8 43.4511 8 37.8399V21.8571C8 18.3043 9.85576 15.0096 12.8941 13.1682L25.5942 5.4712C28.8309 3.5096 32.8894 3.5096 36.1261 5.4712L48.8262 13.1682C51.8646 15.0096 53.7203 18.3043 53.7203 21.8571V37.8399C53.7203 43.4511 49.1714 48 43.5602 48H38.4802M23.2401 48V37.8399C23.2401 33.6314 26.6516 30.2199 30.8602 30.2199C35.0687 30.2199 38.4802 33.6314 38.4802 37.8399V48M23.2401 48H38.4802" stroke="#0091D0" stroke-width="6.05877" stroke-linecap="round" stroke-linejoin="round"/>
</g>
<defs>
<filter id="filter0_d_45_147" x="0.970642" y="0.970703" width="59.7791" height="58.0586" filterUnits="userSpaceOnUse" color-interpolation-filters="sRGB">
<feFlood flood-opacity="0" result="BackgroundImageFix"/>
<feColorMatrix in="SourceAlpha" type="matrix" values="0 0 0 0 0 0 0 0 0 0 0 0 0 0 0 0 0 0 127 0" result="hardAlpha"/>
<feOffset dy="4"/>
<feGaussianBlur stdDeviation="2"/>
<feComposite in2="hardAlpha" operator="out"/>
<feColorMatrix type="matrix" values="0 0 0 0 0 0 0 0 0 0 0 0 0 0 0 0 0 0 0.25 0"/>
<feBlend mode="normal" in2="BackgroundImageFix" result="effect1_dropShadow_45_147"/>
<feBlend mode="normal" in="SourceGraphic" in2="effect1_dropShadow_45_147" result="shape"/>
</filter>
</defs>
</svg>
