<svg width="25" height="25" viewBox="0 0 25 25" fill="none" xmlns="http://www.w3.org/2000/svg">
<path fill-rule="evenodd" clip-rule="evenodd" d="M25 23.2586L19.7291 17.9889C21.3009 16.0281 22.1558 13.5892 22.1523 11.0761C22.1523 4.96211 17.1902 0 11.0761 0C4.96211 0 0 4.96211 0 11.0761C0 17.1901 4.96211 22.1522 11.0761 22.1522C13.5892 22.1558 16.0281 21.3009 17.9888 19.729L23.2586 25.0001L25 23.2586ZM19.6908 11.0761C19.6945 13.3165 18.8221 15.4695 17.2604 17.0757L17.0758 17.2603C15.4695 18.8222 13.3165 19.6945 11.0761 19.6909C6.31587 19.6909 2.46138 15.8352 2.46138 11.0761C2.46138 6.31587 6.31587 2.46138 11.0761 2.46138C15.8352 2.46138 19.6908 6.31587 19.6908 11.0761Z" fill="#5598B6"/>
</svg>
