<svg width="310" height="214" viewBox="0 0 310 214" fill="none" xmlns="http://www.w3.org/2000/svg">
<rect x="149" y="138.751" width="3.10136" height="138.748" rx="1.55068" transform="rotate(-179.944 149 138.751)" fill="white"/>
<path d="M192.693 99.9979V44.7252H211.369C215.705 44.7252 219.25 45.5079 222.003 47.0732C224.774 48.6205 226.825 50.7167 228.156 53.3615C229.488 56.0064 230.153 58.9572 230.153 62.2138C230.153 65.4704 229.488 68.4302 228.156 71.0931C226.843 73.756 224.81 75.8791 222.057 77.4624C219.304 79.0277 215.777 79.8104 211.477 79.8104H198.091V73.8729H211.261C214.23 73.8729 216.614 73.3601 218.413 72.3346C220.213 71.309 221.517 69.9236 222.327 68.1783C223.154 66.415 223.568 64.4269 223.568 62.2138C223.568 60.0008 223.154 58.0216 222.327 56.2763C221.517 54.5311 220.204 53.1636 218.386 52.174C216.569 51.1665 214.158 50.6627 211.153 50.6627H199.386V99.9979H192.693ZM237.135 99.9979V44.7252H270.277V50.6627H243.829V69.3388H267.794V75.2763H243.829V99.9979H237.135Z" fill="white"/>
<path d="M1.64347 207.998V189.089H9.10369C10.5379 189.089 11.7597 189.363 12.7692 189.91C13.7786 190.452 14.5481 191.206 15.0774 192.173C15.6129 193.133 15.8807 194.241 15.8807 195.496C15.8807 196.752 15.6098 197.86 15.0682 198.82C14.5265 199.781 13.7417 200.528 12.7138 201.064C11.692 201.599 10.4548 201.867 9.00213 201.867H4.24716V198.663H8.35582C9.12524 198.663 9.75923 198.531 10.2578 198.266C10.7625 197.995 11.138 197.623 11.3842 197.149C11.6366 196.669 11.7628 196.118 11.7628 195.496C11.7628 194.869 11.6366 194.321 11.3842 193.853C11.138 193.379 10.7625 193.013 10.2578 192.754C9.75308 192.49 9.11293 192.357 8.33736 192.357H5.64134V207.998H1.64347ZM33.8531 207.998H29.569L36.0967 189.089H41.2487L47.7672 207.998H43.4831L38.7466 193.41H38.5988L33.8531 207.998ZM33.5853 200.565H43.7047V203.686H33.5853V200.565ZM75.9928 195.201C75.8635 194.752 75.6819 194.355 75.448 194.01C75.2141 193.659 74.9279 193.364 74.5893 193.124C74.257 192.877 73.8753 192.69 73.4445 192.56C73.0197 192.431 72.5489 192.366 72.0318 192.366C71.0654 192.366 70.216 192.607 69.4835 193.087C68.7572 193.567 68.1909 194.265 67.7847 195.183C67.3784 196.093 67.1753 197.208 67.1753 198.525C67.1753 199.842 67.3753 200.962 67.7754 201.886C68.1755 202.809 68.7418 203.514 69.4743 204C70.2068 204.48 71.0716 204.72 72.0687 204.72C72.9736 204.72 73.7461 204.56 74.3862 204.24C75.0325 203.914 75.525 203.455 75.8635 202.864C76.2082 202.273 76.3805 201.575 76.3805 200.768L77.193 200.888H72.318V197.879H80.2307V200.261C80.2307 201.923 79.8798 203.351 79.1781 204.545C78.4764 205.733 77.51 206.65 76.279 207.296C75.0479 207.936 73.6384 208.256 72.0503 208.256C70.2776 208.256 68.7203 207.866 67.3784 207.084C66.0366 206.296 64.9902 205.179 64.2392 203.732C63.4944 202.28 63.122 200.556 63.122 198.562C63.122 197.029 63.3436 195.663 63.7868 194.462C64.2361 193.256 64.864 192.234 65.6703 191.397C66.4767 190.56 67.4153 189.923 68.4864 189.486C69.5574 189.049 70.7177 188.83 71.9672 188.83C73.0382 188.83 74.0354 188.987 74.9587 189.301C75.882 189.609 76.7006 190.046 77.4146 190.612C78.1348 191.178 78.7226 191.852 79.1781 192.634C79.6336 193.41 79.926 194.265 80.0553 195.201H75.9928ZM109.213 189.089H113.211V201.369C113.211 202.747 112.882 203.954 112.223 204.988C111.571 206.022 110.657 206.828 109.481 207.407C108.305 207.979 106.936 208.266 105.372 208.266C103.803 208.266 102.43 207.979 101.255 207.407C100.079 206.828 99.1649 206.022 98.5124 204.988C97.8599 203.954 97.5337 202.747 97.5337 201.369V189.089H101.532V201.027C101.532 201.747 101.689 202.387 102.002 202.947C102.323 203.508 102.772 203.948 103.35 204.268C103.929 204.588 104.603 204.748 105.372 204.748C106.148 204.748 106.822 204.588 107.394 204.268C107.973 203.948 108.419 203.508 108.733 202.947C109.053 202.387 109.213 201.747 109.213 201.027V189.089ZM130.8 207.998V189.089H143.542V192.385H134.798V196.891H142.886V200.187H134.798V204.702H143.579V207.998H130.8ZM181.338 207.998V189.089H193.858V192.385H185.336V196.891H193.027V200.187H185.336V207.998H181.338ZM211.745 207.998H207.461L213.989 189.089H219.14L225.659 207.998H221.375L216.638 193.41H216.491L211.745 207.998ZM211.477 200.565H221.596V203.686H211.477V200.565ZM258.03 195.709H253.986C253.912 195.186 253.761 194.721 253.534 194.315C253.306 193.902 253.014 193.551 252.657 193.262C252.3 192.973 251.887 192.751 251.419 192.597C250.958 192.443 250.456 192.366 249.914 192.366C248.936 192.366 248.083 192.61 247.357 193.096C246.631 193.576 246.067 194.278 245.667 195.201C245.267 196.118 245.067 197.232 245.067 198.543C245.067 199.891 245.267 201.024 245.667 201.941C246.073 202.858 246.64 203.551 247.366 204.018C248.092 204.486 248.933 204.72 249.887 204.72C250.422 204.72 250.918 204.649 251.373 204.508C251.835 204.366 252.244 204.16 252.601 203.889C252.958 203.612 253.254 203.277 253.488 202.883C253.728 202.489 253.894 202.04 253.986 201.535L258.03 201.553C257.926 202.421 257.664 203.258 257.245 204.065C256.833 204.865 256.276 205.582 255.574 206.216C254.879 206.844 254.048 207.342 253.081 207.712C252.121 208.075 251.035 208.256 249.822 208.256C248.135 208.256 246.627 207.875 245.298 207.111C243.975 206.348 242.928 205.243 242.159 203.797C241.395 202.35 241.014 200.599 241.014 198.543C241.014 196.481 241.402 194.727 242.177 193.281C242.953 191.834 244.005 190.732 245.335 189.975C246.664 189.212 248.16 188.83 249.822 188.83C250.918 188.83 251.933 188.984 252.869 189.292C253.811 189.6 254.645 190.049 255.371 190.64C256.097 191.225 256.688 191.942 257.144 192.791C257.605 193.641 257.901 194.613 258.03 195.709ZM279.195 189.089V207.998H275.197V189.089H279.195ZM296.784 207.998V189.089H300.782V204.702H308.888V207.998H296.784Z" fill="white"/>
<rect width="11.9415" height="29.4312" rx="5.97076" transform="matrix(0.687228 -0.726442 0.724223 0.689566 27 48.3058)" fill="#F6851F"/>
<rect x="29.6492" y="43.6176" width="11.9212" height="82.3896" rx="5.96062" fill="#F8961D"/>
<rect width="11.9415" height="29.4313" rx="5.97075" transform="matrix(-0.687938 0.72577 -0.723548 -0.690274 104 111.703)" fill="#2C9C48"/>
<rect width="11.9212" height="82.3896" rx="5.96062" transform="matrix(-1 -0.000981 0.000974686 -1 101.346 116.388)" fill="#4CB853"/>
<rect width="10.4366" height="68.2867" rx="5.21831" transform="matrix(-0.700661 -0.713494 0.711229 -0.70296 54.1812 84.4493)" fill="#28A992"/>
<rect width="10.4366" height="68.2869" rx="5.21829" transform="matrix(0.701358 0.712809 -0.710541 0.703655 76.8453 75.5103)" fill="#D71F26"/>
</svg>
