<svg width="37" height="37" viewBox="0 0 37 37" fill="none" xmlns="http://www.w3.org/2000/svg">
<path d="M26.2646 0H10.7539C4.0165 0 0 4.0145 0 10.7485V26.233C0 32.9855 4.0165 37 10.7539 37H26.2461C32.9834 37 36.9999 32.9855 36.9999 26.2515V10.7485C37.0184 4.0145 33.0019 0 26.2646 0ZM27.7638 28.2125H9.25461C8.49573 28.2125 7.86642 27.5835 7.86642 26.825C7.86642 26.0665 8.49573 25.4375 9.25461 25.4375H27.7638C28.5227 25.4375 29.152 26.0665 29.152 26.825C29.152 27.5835 28.5227 28.2125 27.7638 28.2125ZM27.7638 19.8875H9.25461C8.49573 19.8875 7.86642 19.2585 7.86642 18.5C7.86642 17.7415 8.49573 17.1125 9.25461 17.1125H27.7638C28.5227 17.1125 29.152 17.7415 29.152 18.5C29.152 19.2585 28.5227 19.8875 27.7638 19.8875ZM27.7638 11.5625H9.25461C8.49573 11.5625 7.86642 10.9335 7.86642 10.175C7.86642 9.4165 8.49573 8.7875 9.25461 8.7875H27.7638C28.5227 8.7875 29.152 9.4165 29.152 10.175C29.152 10.9335 28.5227 11.5625 27.7638 11.5625Z" fill="#F3D7CB"/>
</svg>
