<svg width="38" height="38" viewBox="0 0 38 38" fill="none" xmlns="http://www.w3.org/2000/svg">
<path d="M5.42848 0C6.25431 0 6.96574 0.557136 7.17571 1.33861L7.21754 1.53843L8.08118 7.2327L36.1899 7.23237C37.2748 7.23237 38.0983 8.17396 37.9905 9.2226L37.9563 9.43353L34.3453 25.7241C34.177 26.4835 33.5457 27.0421 32.7881 27.1301L32.5789 27.142H8.99267C8.16681 27.142 7.45541 26.585 7.24541 25.8036L7.20359 25.6036L3.87412 3.61908H0V0H5.42848ZM9.04745 34.381C9.04745 36.3798 10.6677 38 12.6664 38C14.6651 38 16.2854 36.3798 16.2854 34.381C16.2854 32.3822 14.6651 30.7621 12.6664 30.7621C10.6677 30.7621 9.04745 32.3822 9.04745 34.381ZM25.3329 34.381C25.3329 36.3798 26.9531 38 28.9518 38C30.9506 38 32.5707 36.3798 32.5707 34.381C32.5707 32.3822 30.9506 30.7621 28.9518 30.7621C26.9531 30.7621 25.3329 32.3822 25.3329 34.381ZM8.6294 10.8518L10.5493 23.5239H31.1287L33.9368 10.8518H8.6294Z" fill="#FF9E76"/>
</svg>
