<svg width="42" height="40" viewBox="0 0 42 40" fill="none" xmlns="http://www.w3.org/2000/svg">
<path d="M37.991 14.1095C34.1919 14.1095 32.6387 11.3973 34.5277 8.07065C35.6192 6.14245 34.9685 3.68454 33.0585 2.58272L29.4273 0.485017C27.7691 -0.510862 25.6282 0.0824277 24.6417 1.75635L24.4108 2.15894C22.5217 5.4856 19.4153 5.4856 17.5052 2.15894L17.2744 1.75635C16.3298 0.0824277 14.1889 -0.510862 12.5307 0.485017L8.89955 2.58272C6.9895 3.68454 6.33883 6.16364 7.43028 8.09184C9.34033 11.3973 7.78711 14.1095 3.98801 14.1095C1.8051 14.1095 0 15.9105 0 18.1354V21.8646C0 24.0683 1.78411 25.8905 3.98801 25.8905C7.78711 25.8905 9.34033 28.6027 7.43028 31.9294C6.33883 33.8575 6.9895 36.3155 8.89955 37.4173L12.5307 39.515C14.1889 40.5109 16.3298 39.9176 17.3163 38.2436L17.5472 37.8411C19.4363 34.5144 22.5427 34.5144 24.4528 37.8411L24.6837 38.2436C25.6702 39.9176 27.8111 40.5109 29.4693 39.515L33.1005 37.4173C35.0105 36.3155 35.6612 33.8364 34.5697 31.9294C32.6597 28.6027 34.2129 25.8905 38.012 25.8905C40.1949 25.8905 42 24.0895 42 21.8646V18.1354C41.979 15.9317 40.1949 14.1095 37.991 14.1095ZM20.9895 26.8864C17.2324 26.8864 14.1679 23.7928 14.1679 20C14.1679 16.2072 17.2324 13.1136 20.9895 13.1136C24.7466 13.1136 27.8111 16.2072 27.8111 20C27.8111 23.7928 24.7466 26.8864 20.9895 26.8864Z" fill="#FF9E76"/>
</svg>
