<svg width="23" height="23" viewBox="0 0 23 23" fill="none" xmlns="http://www.w3.org/2000/svg">
<path fill-rule="evenodd" clip-rule="evenodd" d="M0.00462113 23L1.55941 17.2868C0.53492 15.5306 -0.00333098 13.5332 1.55099e-05 11.5C1.55099e-05 5.14854 5.14856 0 11.5 0C17.8514 0 23 5.14854 23 11.5C23 17.8514 17.8514 23 11.5 23C9.46769 23.0033 7.47116 22.4654 5.7155 21.4416L0.00462113 23ZM6.04097 18.968L6.87355 19.4544C8.27763 20.2735 9.87458 20.7033 11.5 20.6999C16.5811 20.6999 20.7 16.5809 20.7 11.5C20.7 6.41897 16.5811 2.30001 11.5 2.30001C6.41898 2.30001 2.30002 6.41897 2.30002 11.5C2.30002 13.1514 2.73356 14.7349 3.54662 16.1276L4.03192 16.9601L3.28097 19.7213L6.04097 18.968ZM7.81312 6.09958C7.65903 6.09268 7.50378 6.09268 7.34967 6.10417C7.20116 6.1134 7.0549 6.15137 6.92187 6.21802C6.82182 6.26863 6.72983 6.34222 6.58377 6.48022C6.46813 6.59005 6.39354 6.68755 6.32254 6.78037C6.30951 6.79738 6.29663 6.81423 6.28362 6.83098C5.85853 7.38489 5.6303 8.06475 5.63502 8.76298C5.6458 9.32579 5.77552 9.87994 6.01568 10.3891C6.48488 11.4264 7.25768 12.5246 8.28117 13.5424C8.32003 13.581 8.35874 13.6197 8.39741 13.6584C8.60365 13.8646 8.80865 14.0695 9.02752 14.2623C10.2964 15.3795 11.8085 16.185 13.4435 16.6151C13.4435 16.6151 14.0875 16.7151 14.0967 16.7151C14.2801 16.7251 14.4627 16.7146 14.6451 16.7043C14.6754 16.7025 14.7058 16.7008 14.7361 16.6991C15.071 16.6822 15.3979 16.5918 15.6941 16.4347C15.8445 16.3567 15.9915 16.2723 16.1345 16.1816C16.1831 16.1481 16.2311 16.1136 16.2782 16.0781C16.4146 15.9796 16.5418 15.8687 16.6577 15.7469C16.7563 15.6448 16.8378 15.5275 16.8992 15.3997C16.9889 15.2121 17.0786 14.8545 17.1155 14.5567C17.1419 14.329 17.135 14.2048 17.1303 14.1277C17.1269 14.0047 17.0246 13.877 16.9119 13.823L16.2426 13.5228C16.2426 13.5228 15.2432 13.087 14.6326 12.8075C14.5682 12.7788 14.4981 12.7661 14.4291 12.7615C14.2699 12.7452 14.1114 12.7984 13.9944 12.9076V12.9053C13.9875 12.9053 13.9116 12.9708 13.079 13.9794C12.9815 14.1101 12.8149 14.1691 12.6569 14.1289C12.5822 14.1093 12.5086 14.0829 12.4373 14.053C12.3458 14.0138 12.2926 13.9904 12.2404 13.9673C12.2113 13.9544 12.1825 13.9417 12.1475 13.9265L12.1417 13.9242C11.4839 13.6367 10.8744 13.2491 10.3362 12.7742C10.2291 12.6798 10.1277 12.5805 10.0264 12.4812C9.99057 12.4461 9.95479 12.4111 9.91877 12.3763C9.43578 11.9071 9.04016 11.4091 8.74578 10.9181L8.67792 10.8088C8.62962 10.7306 8.57673 10.6375 8.56062 10.5731C8.51692 10.404 8.63077 10.2683 8.63077 10.2683C8.63077 10.2683 8.91022 9.96242 9.04016 9.79566C9.14834 9.6584 9.24929 9.51563 9.34263 9.36786C9.47831 9.14937 9.52087 8.92513 9.44958 8.75031C9.12757 7.96487 8.79408 7.18172 8.45137 6.40432C8.38353 6.25023 8.18227 6.13867 7.99942 6.11797C7.93732 6.11107 7.87522 6.10417 7.81312 6.09958Z" fill="#38A542"/>
</svg>
